<svg width="3272" height="2525" viewBox="0 0 3272 2525" fill="none" xmlns="http://www.w3.org/2000/svg">
<path d="M3268.84 1790.22C3273.62 1747.62 3272.15 1704.39 3263.81 1662.26C3255.47 1620.12 3239.39 1576.74 3217.36 1535.13C3188.98 1457.01 3130.89 1390.52 3059.29 1348.85C3058.08 1348.14 3056.9 1348.03 3055.91 1348.3C3026.9 1328 2996.18 1311.93 2964.6 1301.44C3083.78 1246.27 3186.65 1149.3 3232.43 1026.21C3278.19 903.096 3260.24 754.229 3173.36 655.737C3162.8 643.758 3151.15 632.845 3138.64 623.053C3088.47 583.719 3024.37 562.26 2960.21 560.938C2910.92 559.909 2861.59 570.785 2818.53 594.595C2789.57 388.517 2638.04 179.996 2457.67 88.2467C2453.77 86.2626 2450.63 89.5511 2451.03 92.8029C2384.71 54.92 2312.79 27.3069 2238.09 12.4992C2205.62 6.05063 2172.63 2.02733 2139.36 0.612691C2126.22 0.0615334 2113.1 -0.122258 2100.06 0.0798335H2099.98C2098.77 0.0982054 2097.58 0.116649 2096.36 0.153393C2096.14 0.153393 2095.91 0.153393 2095.67 0.153393C2094.71 0.190137 2093.74 0.20858 2092.76 0.226952C2092.3 0.245324 2091.83 0.245181 2091.37 0.263553C2090.67 0.281925 2089.97 0.30044 2089.29 0.318812C2088.56 0.355556 2087.82 0.373641 2087.09 0.392013C2086.63 0.410384 2086.19 0.4289 2085.75 0.447272C2084.81 0.484016 2083.85 0.520688 2082.92 0.557432C2082.71 0.557432 2082.51 0.55736 2082.31 0.575732C1993.56 4.17663 1907.61 24.9185 1828.54 59.917C1828.37 59.9905 1828.21 60.0642 1828.04 60.1377C1827.29 60.4868 1826.54 60.8175 1825.76 61.1481C1825.36 61.3502 1824.94 61.5339 1824.53 61.7176C1823.98 61.9564 1823.45 62.1953 1822.92 62.4342C1822.24 62.7465 1821.56 63.0588 1820.88 63.3711C1820.58 63.4997 1820.31 63.6281 1820.01 63.7751C1819.11 64.1793 1818.21 64.5837 1817.31 65.0063C1817.17 65.0797 1817.02 65.1532 1816.87 65.2083C1636.52 148.966 1493.8 307.497 1439.05 506.042C1396.36 447.399 1330.87 400.22 1268.19 372.901C1248.18 361.731 1227.46 351.792 1206.2 343.12C1205.82 342.973 1205.44 342.808 1205.06 342.661C1203.64 342.091 1202.22 341.522 1200.8 340.952C1199.99 340.64 1199.18 340.309 1198.38 339.997C1197.57 339.685 1196.77 339.372 1195.96 339.06C1195 338.693 1194.04 338.325 1193.08 337.958C1192.51 337.737 1191.94 337.517 1191.36 337.296C1189.84 336.727 1188.3 336.157 1186.77 335.606C1186.31 335.422 1185.85 335.257 1185.4 335.092C1183.75 334.504 1182.11 333.898 1180.46 333.328C1180.45 333.31 1180.43 333.31 1180.42 333.31C1178.97 332.795 1177.51 332.281 1176.06 331.785C1175.73 331.675 1175.41 331.564 1175.08 331.454C1173.71 330.976 1172.33 330.517 1170.95 330.058C1170.7 329.966 1170.44 329.874 1170.19 329.801C1165.55 328.257 1160.9 326.769 1156.22 325.336C1156.16 325.318 1156.1 325.299 1156.04 325.281C1154.75 324.895 1153.46 324.509 1152.17 324.124C1151.68 323.977 1151.19 323.83 1150.69 323.683C1149.52 323.352 1148.36 323.003 1147.19 322.672C1146.52 322.489 1145.85 322.286 1145.18 322.103C1144.08 321.79 1142.98 321.478 1141.88 321.166C1141.19 320.982 1140.5 320.798 1139.81 320.615C1138.71 320.302 1137.61 320.008 1136.5 319.714C1135.94 319.567 1135.37 319.42 1134.8 319.255C1132.57 318.667 1130.33 318.098 1128.08 317.528C1127.44 317.381 1126.79 317.216 1126.15 317.05C1125.11 316.793 1124.07 316.554 1123.03 316.297C1122.25 316.114 1121.47 315.911 1120.69 315.728C1119.65 315.489 1118.62 315.25 1117.59 315.011C1116.78 314.828 1115.97 314.644 1115.17 314.46C1114.15 314.221 1113.14 314.001 1112.13 313.78C1111.28 313.578 1110.43 313.395 1109.57 313.211C1108.59 313.009 1107.61 312.788 1106.63 312.586C1105.73 312.402 1104.82 312.219 1103.91 312.017C1102.22 311.686 1100.53 311.337 1098.84 311.006C1097.89 310.822 1096.95 310.639 1096 310.455C1095.03 310.271 1094.05 310.088 1093.08 309.904C1092.22 309.739 1091.36 309.591 1090.5 309.426C1089.47 309.242 1088.44 309.059 1087.41 308.875C1086.61 308.746 1085.8 308.599 1085 308.452C1083.96 308.287 1082.92 308.103 1081.89 307.938C1081.04 307.791 1080.2 307.662 1079.35 307.516C1078.34 307.369 1077.33 307.203 1076.32 307.038C1075.48 306.909 1074.64 306.781 1073.8 306.652C1071.84 306.358 1069.88 306.082 1067.91 305.807C1067.19 305.697 1066.46 305.586 1065.73 305.495C1064.61 305.348 1063.5 305.201 1062.38 305.054C1061.65 304.943 1060.92 304.852 1060.18 304.76C1059.1 304.631 1058.02 304.484 1056.95 304.356C1056.13 304.264 1055.32 304.172 1054.51 304.08C1053.47 303.951 1052.42 303.841 1051.38 303.712C1050.59 303.621 1049.79 303.547 1048.99 303.455C1047.91 303.345 1046.83 303.235 1045.76 303.125C1045.14 303.051 1044.52 302.996 1043.9 302.941C1041.55 302.702 1039.2 302.5 1036.85 302.298C1036.29 302.243 1035.73 302.188 1035.17 302.151C1034.03 302.059 1032.88 301.967 1031.74 301.875C1031.03 301.82 1030.32 301.783 1029.61 301.728C1028.47 301.637 1027.32 301.563 1026.18 301.489C1025.48 301.434 1024.79 301.398 1024.09 301.342C1022.93 301.287 1021.77 301.214 1020.61 301.14C1019.95 301.104 1019.28 301.067 1018.62 301.03C1017.42 300.975 1016.21 300.92 1015 300.865C1014.67 300.846 1014.33 300.828 1014 300.81C1011.24 300.7 1008.47 300.589 1005.71 300.497C1005.32 300.497 1004.93 300.479 1004.54 300.479C1003.35 300.442 1002.15 300.405 1000.96 300.387C1000.29 300.369 999.606 300.35 998.926 300.35C997.78 300.332 996.635 300.314 995.491 300.295C994.789 300.295 994.091 300.277 993.391 300.277C992.215 300.277 991.039 300.259 989.865 300.259C989.235 300.259 988.607 300.259 987.976 300.259C986.751 300.259 985.527 300.277 984.302 300.277C983.962 300.277 983.62 300.295 983.279 300.295C980.534 300.332 977.787 300.369 975.044 300.442C974.637 300.461 974.229 300.461 973.819 300.479C972.658 300.497 971.499 300.553 970.338 300.589C969.627 300.608 968.914 300.644 968.203 300.663C967.069 300.699 965.934 300.755 964.8 300.81C964.087 300.828 963.378 300.865 962.665 300.902C961.547 300.957 960.43 301.012 959.311 301.067C958.546 301.122 957.782 301.159 957.018 301.214C955.916 301.269 954.811 301.342 953.711 301.398C953.106 301.453 952.506 301.489 951.903 301.526C949.647 301.692 947.393 301.857 945.14 302.041C944.466 302.096 943.79 302.132 943.116 302.206C942.063 302.279 941.012 302.39 939.961 302.482C939.135 302.555 938.312 302.629 937.488 302.702C936.478 302.794 935.469 302.904 934.461 303.014C933.579 303.088 932.699 303.18 931.817 303.271C930.847 303.382 929.875 303.492 928.905 303.602C927.985 303.694 927.062 303.804 926.142 303.915C925.198 304.025 924.253 304.135 923.309 304.245C922.242 304.374 921.176 304.521 920.111 304.649C918.657 304.833 917.204 305.035 915.753 305.237C914.691 305.366 913.627 305.513 912.567 305.678C911.68 305.807 910.796 305.935 909.91 306.064C908.896 306.211 907.882 306.358 906.868 306.523C906.027 306.652 905.185 306.78 904.344 306.909C903.276 307.093 902.209 307.258 901.142 307.442C900.359 307.571 899.578 307.699 898.797 307.828C897.598 308.03 896.398 308.25 895.198 308.452C894.546 308.581 893.892 308.691 893.242 308.802C891.388 309.132 889.538 309.481 887.69 309.849C887.64 309.849 887.592 309.867 887.543 309.867C882.233 310.896 876.94 311.998 871.664 313.192C871.469 313.247 871.28 313.284 871.087 313.321C869.459 313.707 867.83 314.074 866.204 314.46C865.98 314.515 865.755 314.57 865.529 314.625C863.87 315.011 862.211 315.415 860.558 315.838C860.468 315.856 860.38 315.875 860.292 315.911C857.093 316.701 853.904 317.528 850.718 318.392C850.442 318.483 850.163 318.557 849.886 318.631C848.139 319.108 846.393 319.586 844.652 320.082C844.247 320.21 843.843 320.321 843.443 320.431C841.931 320.872 840.422 321.313 838.916 321.754C838.378 321.919 837.836 322.084 837.297 322.25C836.423 322.507 835.548 322.764 834.676 323.04C833.955 323.26 833.237 323.481 832.517 323.719C832.495 323.719 832.477 323.72 832.456 323.738C831.782 320.964 829.118 318.484 825.879 319.457C582.975 392.761 406.448 688.972 453.488 940.979C445.582 940.759 437.624 940.777 429.625 940.997C429.599 940.997 429.569 940.997 429.542 940.997C428.373 941.034 427.201 941.071 426.027 941.108H425.823C424.67 941.163 423.514 941.2 422.358 941.255C422.285 941.255 422.21 941.255 422.136 941.273C421.008 941.31 419.878 941.365 418.747 941.438C418.636 941.438 418.522 941.438 418.412 941.438C417.339 941.512 416.266 941.567 415.193 941.64C415.012 941.64 414.833 941.659 414.655 941.659C413.608 941.732 412.559 941.806 411.512 941.879C411.324 941.879 411.141 941.898 410.953 941.916C409.992 941.971 409.026 942.045 408.065 942.118C407.745 942.136 407.428 942.173 407.11 942.192C406.268 942.265 405.429 942.32 404.585 942.394C404.168 942.43 403.746 942.467 403.325 942.504C402.572 942.577 401.817 942.632 401.062 942.706C400.547 942.761 400.037 942.798 399.526 942.853C398.861 942.908 398.198 942.982 397.534 943.055C396.939 943.11 396.347 943.165 395.754 943.22C395.172 943.294 394.589 943.349 394.005 943.423C393.314 943.496 392.622 943.57 391.929 943.643C391.488 943.698 391.047 943.735 390.604 943.79C389.774 943.882 388.944 943.974 388.111 944.084C387.779 944.121 387.446 944.157 387.116 944.194C386.16 944.323 385.207 944.433 384.251 944.562C384.079 944.58 383.91 944.598 383.739 944.635C382.644 944.782 381.547 944.911 380.454 945.058C380.379 945.076 380.305 945.094 380.23 945.094C379.056 945.26 377.88 945.425 376.708 945.59C376.68 945.59 376.653 945.609 376.629 945.609C249.427 964.017 121.709 1034.73 58.2676 1140.46C-20.8088 1272.22 -19.2693 1448.26 62.1018 1578.63C143.473 1709 300.946 1787.7 454.057 1774.55C432.581 1800.51 415.283 1829.04 401.956 1859.28C401.464 1855.53 395.482 1854.63 393.902 1858.88C361.046 1947.26 357.788 2044.45 379.583 2135.89C393.118 2195.49 417.802 2252.81 452.485 2302.8C487.683 2355.08 532.851 2400.54 586.614 2434.74C589.067 2436.31 591.332 2435.85 592.883 2434.45C703.711 2503.84 840.009 2532.57 972.972 2523.15C975.083 2522.98 977.192 2522.84 979.301 2522.67C992.114 2521.64 1004.89 2520.27 1017.6 2518.54C1016.63 2521.33 1018.91 2525.3 1022.78 2524.44C1247.62 2474.67 1468.56 2354.94 1613.7 2172.56C1655.26 2264.49 1726.21 2342.55 1812.19 2400.83C1812.17 2400.81 1812.13 2400.81 1812.11 2400.79C1821.91 2407.43 1831.9 2413.8 1842.06 2419.92C1842.34 2420.08 1842.59 2420.25 1842.87 2420.41C1843.88 2421.02 1844.91 2421.63 1845.94 2422.23C1846.71 2422.69 1847.48 2423.15 1848.23 2423.59C1848.99 2424.03 1849.74 2424.47 1850.49 2424.92C1851.56 2425.52 1852.61 2426.13 1853.65 2426.73C1854.26 2427.08 1854.85 2427.43 1855.45 2427.76C1856.7 2428.48 1857.95 2429.2 1859.22 2429.89C1859.61 2430.11 1860.01 2430.35 1860.41 2430.57C1861.9 2431.4 1863.41 2432.23 1864.9 2433.05C1865.12 2433.18 1865.34 2433.31 1865.58 2433.42C1964.09 2487.42 2076.71 2517.07 2185.47 2514.94C2418.33 2510.42 2610.96 2373.73 2693.71 2156.58C2791.48 2203.97 2929.95 2185.33 3021.5 2147C3160.08 2088.98 3262.34 1945.89 3271.98 1795.81C3272.17 1792.87 3270.77 1791.03 3268.84 1790.22Z" fill="#92DBE2"/>
<path d="M2185.45 2514.9C2418.3 2510.4 2610.98 2373.68 2693.62 2156.54C2676.13 2148.05 2659.92 2137.45 2645.54 2124.46C2552.3 2273.88 2401.28 2382.92 2230.94 2426.42C2209.24 2434.03 2186.99 2438.33 2164.56 2439.85C2046.39 2457.54 1923.83 2443.38 1812.19 2400.83C1812.17 2400.81 1812.13 2400.81 1812.11 2400.79C1821.91 2407.43 1831.9 2413.8 1842.06 2419.92C1842.34 2420.08 1842.59 2420.25 1842.87 2420.41C1843.88 2421.02 1844.91 2421.63 1845.94 2422.23C1846.71 2422.69 1847.48 2423.15 1848.23 2423.59C1848.99 2424.03 1849.74 2424.47 1850.49 2424.92C1851.56 2425.52 1852.61 2426.13 1853.65 2426.73C1854.26 2427.08 1854.85 2427.43 1855.45 2427.76C1856.7 2428.48 1857.95 2429.2 1859.22 2429.89C1859.61 2430.11 1860.01 2430.35 1860.41 2430.57C1861.9 2431.4 1863.41 2432.23 1864.9 2433.05C1865.12 2433.18 1865.34 2433.31 1865.58 2433.42C1964.09 2487.38 2076.72 2517.07 2185.45 2514.9Z" fill="#7ED4E0"/>
<path d="M2499.08 1535.99C2512.42 1560.72 2533.8 1582.99 2563.42 1599.3C2609.16 1624.47 2669.44 1630.44 2718.31 1610.51C2749.54 1597.79 2776.46 1573.03 2788.29 1541.43C2820.33 1455.83 2756.06 1372.04 2676.04 1346.1C2650.08 1433.73 2583.99 1504.12 2499.08 1535.99Z" fill="#BCE8D7"/>
<path d="M2396.75 972.009C2235.92 972.009 2105.51 1102.41 2105.51 1263.25C2105.51 1424.09 2235.92 1554.47 2396.75 1554.47C2432.75 1554.47 2467.24 1547.93 2499.08 1535.99C2583.99 1504.12 2650.08 1433.73 2676.04 1346.1C2683.81 1319.84 2687.98 1292.03 2687.98 1263.25C2687.98 1102.41 2557.59 972.009 2396.75 972.009Z" fill="#202A57"/>
<path d="M887.689 309.849C887.64 309.849 887.592 309.867 887.542 309.867C882.233 310.896 876.94 311.998 871.664 313.193C871.469 313.248 871.28 313.284 871.087 313.321C869.459 313.707 867.829 314.074 866.203 314.46C865.979 314.515 865.755 314.57 865.529 314.626C863.87 315.011 862.211 315.416 860.558 315.838C860.468 315.857 860.379 315.875 860.291 315.912C857.093 316.702 853.903 317.528 850.718 318.392C850.442 318.484 850.163 318.557 849.885 318.631C848.138 319.108 846.393 319.586 844.651 320.082C844.247 320.211 843.843 320.321 843.442 320.431C841.93 320.872 840.422 321.313 838.916 321.754C838.377 321.919 837.835 322.085 837.297 322.25C836.423 322.507 835.548 322.764 834.675 323.04C833.955 323.26 833.237 323.481 832.517 323.72C832.495 323.72 832.476 323.72 832.456 323.738C831.782 320.964 829.118 318.484 825.879 319.457C582.975 392.761 406.448 688.972 453.488 940.979C445.582 940.759 437.623 940.777 429.624 940.998C429.599 940.998 429.569 940.998 429.542 940.998C428.373 941.034 427.201 941.071 426.027 941.108H425.823C424.669 941.163 423.514 941.2 422.358 941.255C422.285 941.255 422.209 941.255 422.136 941.273C421.008 941.31 419.878 941.365 418.746 941.439C418.636 941.439 418.522 941.439 418.412 941.439C417.339 941.512 416.266 941.567 415.193 941.641C415.011 941.641 414.833 941.659 414.655 941.659C413.608 941.732 412.559 941.806 411.511 941.879C411.324 941.879 411.14 941.898 410.953 941.916C409.992 941.971 409.026 942.045 408.065 942.118C407.745 942.137 407.427 942.173 407.109 942.192C406.268 942.265 405.428 942.32 404.585 942.394C404.168 942.431 403.746 942.467 403.325 942.504C402.572 942.578 401.817 942.633 401.061 942.706C400.547 942.761 400.036 942.798 399.526 942.853C398.861 942.908 398.197 942.982 397.534 943.055C396.939 943.11 396.347 943.165 395.754 943.221C395.171 943.294 394.589 943.349 394.005 943.423C393.314 943.496 392.621 943.57 391.929 943.643C391.488 943.698 391.047 943.735 390.604 943.79C389.774 943.882 388.943 943.974 388.111 944.084C387.779 944.121 387.446 944.158 387.115 944.194C386.16 944.323 385.206 944.433 384.251 944.562C384.078 944.58 383.909 944.598 383.739 944.635C382.644 944.782 381.547 944.911 380.454 945.058C380.378 945.076 380.305 945.095 380.23 945.095C379.056 945.26 377.88 945.425 376.708 945.591C376.68 945.591 376.653 945.609 376.629 945.609C249.453 964.036 121.759 1034.79 58.3096 1140.46C4.74627 1229.57 -11.7921 1338.95 8.29204 1440.75C25.3265 1356.86 63.7219 1277.22 120.431 1212.92C212.382 1108.44 352.174 1052.09 491.396 1052.72C503 1075.31 516.946 1097.1 533.385 1117.85C538.162 1123.87 548.355 1115.99 544.072 1109.6C526.45 1083.27 511.914 1055.97 500.334 1027.97C501.846 938.83 521.337 850.259 556.152 768.173C552.461 790.311 550.177 812.835 549.398 835.598C549.211 841.128 557.546 841.018 557.936 835.598C560.846 795.106 568.042 756.231 579.091 719.285C619.546 640.892 674.474 570.014 741.296 512.399C869.685 401.745 1039.92 341.687 1209.16 344.351C1108.12 302.408 994.68 289.217 887.689 309.849Z" fill="#7ED4E0"/>
<path d="M994.432 972.009C833.59 972.009 703.203 1102.41 703.203 1263.25C703.203 1292.03 707.38 1319.84 715.159 1346.1C741.119 1433.73 807.197 1504.12 892.112 1535.99C923.947 1547.93 958.423 1554.47 994.432 1554.47C1155.28 1554.47 1285.67 1424.09 1285.67 1263.25C1285.67 1102.41 1155.28 972.009 994.432 972.009Z" fill="#202A57"/>
<path d="M1785.02 1243.35C1781.2 1295.23 1756.78 1353.65 1695.97 1357.95C1636.53 1362.16 1606.64 1301.97 1606.04 1251.98C1605.82 1232.71 1580.76 1231.4 1574.31 1247.68C1545.63 1320.08 1624.12 1401.34 1695.97 1397.98C1771.48 1394.43 1836.18 1312.5 1820.58 1238.53C1816.14 1217.49 1786.43 1224.02 1785.02 1243.35Z" fill="#202A57"/>
<path d="M2302.2 1302.12C2365.04 1302.12 2415.96 1251.18 2415.96 1188.36C2415.96 1125.52 2365.04 1074.6 2302.2 1074.6C2239.39 1074.6 2188.46 1125.52 2188.46 1188.36C2188.46 1251.18 2239.39 1302.12 2302.2 1302.12Z" fill="white"/>
<path d="M2523.9 1447.62C2555.22 1447.62 2580.59 1422.25 2580.59 1390.94C2580.59 1359.64 2555.22 1334.25 2523.9 1334.25C2492.59 1334.25 2467.22 1359.64 2467.22 1390.94C2467.22 1422.25 2492.59 1447.62 2523.9 1447.62Z" fill="white"/>
<path d="M2437.33 1494.71C2452.1 1494.71 2464.06 1482.75 2464.06 1467.98C2464.06 1453.21 2452.1 1441.25 2437.33 1441.25C2422.56 1441.25 2410.6 1453.21 2410.6 1467.98C2410.6 1482.75 2422.56 1494.71 2437.33 1494.71Z" fill="white"/>
<path d="M715.159 1346.1C635.129 1372.04 570.857 1455.83 602.906 1541.43C614.727 1573.03 641.653 1597.79 672.883 1610.51C721.754 1630.44 782.031 1624.47 827.777 1599.3C857.389 1582.99 878.764 1560.72 892.112 1535.99C807.197 1504.12 741.118 1433.73 715.159 1346.1Z" fill="#BCE8D7"/>
<path d="M1088.97 1074.6C1026.15 1074.6 975.217 1125.52 975.217 1188.36C975.217 1251.18 1026.15 1302.12 1088.97 1302.12C1151.8 1302.12 1202.73 1251.18 1202.73 1188.36C1202.73 1125.52 1151.8 1074.6 1088.97 1074.6Z" fill="white"/>
<path d="M867.28 1334.25C835.969 1334.25 810.592 1359.64 810.592 1390.94C810.592 1422.25 835.969 1447.62 867.28 1447.62C898.586 1447.62 923.967 1422.25 923.967 1390.94C923.967 1359.64 898.586 1334.25 867.28 1334.25Z" fill="white"/>
<path d="M953.858 1441.25C939.094 1441.25 927.123 1453.21 927.123 1467.98C927.123 1482.75 939.094 1494.71 953.858 1494.71C968.62 1494.71 980.591 1482.75 980.591 1467.98C980.591 1453.21 968.62 1441.25 953.858 1441.25Z" fill="white"/>
<path d="M1759.61 1457.51C1745.92 1435.83 1698.3 1441.45 1681.29 1453.67C1676.64 1456.97 1673.09 1462.25 1673.17 1467.94C1673.32 1478.76 1685.44 1485.17 1696.08 1487.16C1711.62 1490.06 1777.54 1485.95 1759.61 1457.51Z" fill="#6CCEDB"/>
<path d="M533.386 1117.85C538.162 1123.87 548.355 1115.99 544.073 1109.6C526.45 1083.27 511.915 1055.97 500.335 1027.97C452.252 911.658 455.145 783.036 499.921 660.734C557.894 502.368 679.652 397.097 829.969 329.158C832.343 328.092 832.964 325.814 832.457 323.738C831.782 320.964 829.118 318.484 825.879 319.457C582.975 392.761 406.449 688.972 453.488 940.979C460.692 979.597 473.139 1017.15 491.397 1052.72C503 1075.31 516.947 1097.1 533.386 1117.85Z" fill="#469BCC"/>
<path d="M3268.84 1790.22C3265.3 1788.73 3259.97 1790.72 3259.29 1795.81C3239.81 1942.06 3155.3 2075.04 3015.84 2133.83C2908.51 2179.06 2736.75 2196.33 2643.96 2110.66C2639.77 2106.79 2633.65 2112.87 2637.67 2116.95C2640.23 2119.54 2642.86 2122.04 2645.54 2124.46C2659.92 2137.45 2676.13 2148.05 2693.62 2156.54C2693.65 2156.56 2693.67 2156.56 2693.71 2156.58C2791.48 2203.97 2929.95 2185.33 3021.5 2147C3160.08 2088.98 3262.34 1945.89 3271.98 1795.81C3272.17 1792.87 3270.77 1791.03 3268.84 1790.22Z" fill="#469BCC"/>
<path d="M3054.68 1356.72C3127.53 1406.52 3178.01 1470.86 3214.28 1550.82C3216.17 1554.99 3223.02 1552.03 3221.64 1547.69C3220.3 1543.47 3218.89 1539.28 3217.36 1535.13C3188.98 1457.01 3130.89 1390.52 3059.29 1348.85C3058.08 1348.14 3056.9 1348.03 3055.91 1348.3C3052.64 1349.2 3051.02 1354.22 3054.68 1356.72Z" fill="#469BCC"/>
<path d="M1617.92 2151.65C1614.91 2154.92 1611.88 2158.19 1608.85 2161.43C1600.86 2169.93 1592.79 2178.35 1584.67 2186.65C1523.35 2249.24 1457.83 2305.52 1387.47 2353.87C1296.57 2394.44 1197.73 2419.61 1103.52 2430.83C1014.41 2441.47 922.635 2435.22 835.956 2411.91C767.822 2397.85 703.024 2369.95 650.51 2329.16C628.806 2314.78 608.038 2298.96 588.397 2281.67C466.804 2174.65 394.437 2010.02 406.45 1849.54C404.905 1852.8 403.413 1856.07 401.962 1859.35C401.96 1859.32 401.96 1859.3 401.957 1859.28C401.464 1855.53 395.482 1854.63 393.902 1858.88C361.046 1947.26 357.789 2044.45 379.583 2135.89C393.733 2195.27 418.447 2252.24 452.485 2302.8C487.684 2355.08 532.851 2400.54 586.614 2434.74C589.067 2436.31 591.332 2435.85 592.883 2434.45C703.699 2503.82 840.013 2532.56 972.972 2523.15C975.083 2522.98 977.192 2522.84 979.301 2522.67C992.114 2521.64 1004.89 2520.27 1017.6 2518.54C1016.63 2521.33 1018.91 2525.3 1022.78 2524.44C1247.62 2474.67 1468.56 2354.94 1613.7 2172.56C1617.67 2167.56 1621.6 2162.55 1625.44 2157.46C1628.74 2153.12 1621.58 2147.7 1617.92 2151.65Z" fill="#7ED4E0"/>
<path d="M1617.92 2151.65C1614.91 2154.92 1611.88 2158.19 1608.85 2161.43C1600.86 2169.93 1592.79 2178.35 1584.67 2186.65C1523.35 2249.24 1457.83 2305.52 1387.47 2353.87C1277.76 2429.27 1156.26 2485.4 1020.48 2516.1C1018.92 2516.46 1018 2517.4 1017.6 2518.54C1016.63 2521.33 1018.91 2525.3 1022.78 2524.44C1247.62 2474.67 1468.56 2354.94 1613.7 2172.56C1617.67 2167.56 1621.6 2162.55 1625.44 2157.46C1628.74 2153.12 1621.58 2147.7 1617.92 2151.65Z" fill="#469BCC"/>
<path d="M592.438 2424.77C413.411 2289.73 339.858 2077.65 401.8 1861.06C401.979 1860.44 402.021 1859.87 401.962 1859.35C401.96 1859.32 401.96 1859.3 401.957 1859.28C401.464 1855.53 395.482 1854.63 393.902 1858.88C361.046 1947.26 357.789 2044.45 379.583 2135.89C393.733 2195.27 418.447 2252.24 452.485 2302.8C487.684 2355.08 532.851 2400.54 586.614 2434.74C589.067 2436.31 591.332 2435.85 592.883 2434.45C595.387 2432.19 596.003 2427.45 592.438 2424.77Z" fill="#469BCC"/>
<path d="M1259.7 378.596C1302.13 400.33 1341.54 426.271 1376.25 459.157C1411.59 492.631 1435.12 532.13 1463.47 570.858C1466.56 575.084 1474.99 572.769 1472.75 566.945C1464.56 545.615 1453.04 525.222 1439.05 506.042C1396.36 447.399 1330.87 400.22 1268.19 372.901C1266.81 372.295 1265.44 371.707 1264.06 371.119C1259.09 369.024 1254.62 375.987 1259.7 378.596Z" fill="#469BCC"/>
<path d="M3173.36 655.755C3162.8 643.777 3151.15 632.864 3138.64 623.053C3088.47 583.719 3024.37 562.261 2960.21 560.938C2910.92 559.927 2861.59 570.804 2818.53 594.614C2818.53 594.595 2818.53 594.595 2818.53 594.595C2789.57 388.518 2638.04 179.996 2457.67 88.2471C2453.77 86.2629 2450.63 89.5515 2451.03 92.8033C2384.71 54.9204 2312.79 27.3073 2238.09 12.4995C2205.62 6.06937 2172.65 2.02762 2139.37 0.631357C2126.22 0.061828 2113.1 -0.103519 2100.06 0.0801999H2099.98C2098.77 0.0985718 2097.58 0.117015 2096.37 0.153759C2096.14 0.153759 2095.91 0.153759 2095.67 0.153759C2094.71 0.190503 2093.74 0.208947 2092.76 0.227319C2092.3 0.245691 2091.83 0.245547 2091.37 0.263919C2090.67 0.282291 2089.97 0.300806 2089.29 0.319178C2088.56 0.355922 2087.82 0.374007 2087.09 0.392379C2086.63 0.410751 2086.19 0.429266 2085.75 0.447638C2084.81 0.484382 2083.85 0.521054 2082.92 0.557798C2082.71 0.557798 2082.51 0.557726 2082.31 0.576098C1993.56 4.17699 1907.61 24.9189 1828.54 59.9174C1828.37 59.9909 1828.21 60.0646 1828.04 60.1381C1827.29 60.4871 1826.54 60.8178 1825.77 61.1485C1825.36 61.3506 1824.94 61.5342 1824.53 61.718C1823.98 61.9568 1823.45 62.1957 1822.92 62.4345C1822.24 62.7469 1821.56 63.0591 1820.88 63.3714C1820.58 63.5 1820.31 63.6285 1820.01 63.7755C1819.11 64.1797 1818.21 64.5841 1817.31 65.0066C1817.17 65.0801 1817.02 65.1535 1816.87 65.2086C1768.7 87.604 1723.19 115.327 1681.36 147.717C1750.77 112.976 1826.68 90.7088 1904.07 83.3233C1956.98 78.3077 2010.27 80.0164 2062.71 87.8061C2141.8 76.7646 2222.54 79.1529 2300.11 96.4041C2308.4 98.2413 2304.78 110.422 2296.64 108.971C2236.97 98.4251 2176.61 94.6036 2116.98 98.1127C2235.5 125.505 2347.38 183.726 2438.1 265.077C2582.14 394.158 2673.21 578.373 2698.91 770.157C2775.59 693.473 2887.64 655.663 2996.04 653.404C3070.28 651.916 3144.61 670.729 3209.68 706.462C3199.36 688.549 3187.25 671.519 3173.36 655.755Z" fill="#7ED4E0"/>
<path d="M2453.06 96.1102C2548.88 166.511 2636.28 234.616 2702.2 335.809C2768.37 437.387 2796.61 545.046 2812.85 663.545C2813.7 669.7 2823.53 668.083 2823.51 662.112C2823.4 639.754 2821.69 617.193 2818.53 594.614C2818.53 594.595 2818.53 594.595 2818.53 594.595C2789.57 388.518 2638.04 179.996 2457.67 88.2471C2453.77 86.2629 2450.63 89.5515 2451.03 92.8033C2451.18 93.9975 2451.81 95.1917 2453.06 96.1102Z" fill="#469BCC"/>
<path d="M3142.04 1921.36C3139.78 1927.04 3149 1930.78 3151.85 1925.49C3215.69 1807.33 3201.8 1649.69 3125.08 1541.04C3121.41 1535.86 3113.03 1540.47 3116.41 1546.11C3188.1 1665.82 3193.33 1793.23 3142.04 1921.36Z" fill="#469BCC"/>
<path d="M3059.75 2027.82C3081.67 2017.59 3104.45 2001.55 3116.19 1979.78C3119.13 1974.33 3111.93 1968.26 3107.41 1973C3090.74 1990.42 3075.81 2006.73 3054.22 2018.36C3047.92 2021.74 3053.45 2030.76 3059.75 2027.82Z" fill="#469BCC"/>
<path d="M375.322 1699.67C188.153 1645.49 69.4484 1494.93 76.314 1296.79C76.5051 1291.2 68.313 1291.42 67.7747 1296.79C48.78 1486.5 181.313 1676.39 372.287 1710.67C379.417 1711.96 382.498 1701.74 375.322 1699.67Z" fill="#469BCC"/>
<path d="M535.803 1700.93C512.309 1709.79 490.825 1718.26 465.409 1720.06C459.547 1720.48 459.403 1729.41 465.409 1729.3C490.768 1728.84 518.122 1724.17 539.54 1709.81C543.813 1706.94 541.25 1698.89 535.803 1700.93Z" fill="#469BCC"/>
<path d="M2296.64 108.97C2304.78 110.421 2308.4 98.2408 2300.11 96.4036C2222.54 79.1524 2141.8 76.7641 2062.71 87.8056C1843.81 118.358 1637.51 251.757 1545.91 457.522C1543.81 462.244 1550.17 466.267 1552.98 461.656C1625.66 342.569 1715.09 241.174 1839.86 174.686C1926.65 128.426 2020.91 103.752 2116.98 98.1122C2176.61 94.6031 2236.97 98.4246 2296.64 108.97Z" fill="#E0F5FA"/>
<path d="M2445.05 192.122C2562.4 253.447 2620.48 359.545 2676.6 474.02C2678.85 478.613 2686.32 475.398 2684.84 470.566C2647.74 349.936 2570.36 232.871 2451.88 180.474C2444.11 177.038 2437.2 188.025 2445.05 192.122Z" fill="#E0F5FA"/>
<path d="M2245.45 2410.18C2125.34 2435.19 2017.26 2411.69 1914.85 2344.94C1829.07 2289.02 1753.51 2217.07 1706.53 2125.31C1703.26 2118.91 1694.26 2124.52 1697.07 2130.84C1742.6 2233.65 1833.26 2313.12 1927.67 2370.94C1997.23 2413.52 2082.2 2445.4 2164.56 2439.85C2186.99 2438.33 2209.24 2434.03 2230.94 2426.42C2237.09 2424.27 2243.18 2421.85 2249.22 2419.15C2254.55 2416.78 2250.6 2409.12 2245.45 2410.18Z" fill="#E0F5FA"/>
<path d="M2514.51 2218.62C2480.39 2268.35 2447.03 2310.2 2393.11 2339.85C2386.81 2343.31 2392.35 2352.6 2398.69 2349.43C2450.92 2323.13 2502.46 2278.38 2523.05 2222.24C2524.96 2216.98 2517.32 2214.5 2514.51 2218.62Z" fill="#E0F5FA"/>
<path d="M974.934 353.849C980.38 352.508 977.962 344.792 972.664 345.618C754.793 379.662 591.327 557.245 556.152 768.172C552.461 790.311 550.178 812.835 549.399 835.597C549.211 841.127 557.547 841.017 557.936 835.597C560.846 795.106 568.042 756.231 579.091 719.285C633.757 536.484 782.856 401.028 974.934 353.849Z" fill="#E0F5FA"/>
<path d="M153.636 1177.09C184.197 1100.67 257.049 1067.87 323.954 1030.01C329.304 1027 325.665 1017.37 319.646 1019.79C245.497 1049.45 169.395 1093.87 145.846 1174.93C144.364 1180.05 151.751 1181.78 153.636 1177.09Z" fill="#E0F5FA"/>
<path d="M1173.3 2355.8C1177.32 2353.03 1174.92 2345.07 1169.71 2347.26C1061.06 2393.02 957.334 2420.51 838.776 2396.64C724.391 2373.64 607.4 2307.1 558.696 2196.7C556.505 2191.74 547.716 2195.36 549.836 2200.43C571.342 2251.98 606.64 2295.06 650.51 2329.16C703.024 2369.95 767.822 2397.85 835.956 2411.91C953.895 2436.27 1081.82 2419.16 1173.3 2355.8Z" fill="#E0F5FA"/>
<path d="M3108 1088.67C3176.54 1027.68 3210.55 933.447 3204.27 842.818C3203.82 836.425 3194.31 836.278 3194.23 842.818C3193.17 935.927 3160.61 1011.16 3100.41 1081.08C3095.91 1086.3 3102.8 1093.3 3108 1088.67Z" fill="#E0F5FA"/>
</svg>
