<svg width="2931" height="3572" viewBox="0 0 2931 3572" fill="none" xmlns="http://www.w3.org/2000/svg">
<path d="M1159 544.467C1208.25 505.053 1270.65 590.44 1277.22 669.267C1283.78 748.08 1214.82 925.427 1021.06 971.4C827.305 1017.37 804.318 1138.89 810.878 1211.13C817.451 1283.39 784.611 1362.2 715.638 1345.79C646.678 1329.36 640.105 1220.99 702.505 1119.19C764.905 1017.37 922.545 925.427 948.811 869.587C975.078 813.76 955.385 748.08 1007.93 725.093C1060.46 702.107 1129.44 761.213 1122.86 817.053C1122.86 817.053 1175.41 764.507 1168.85 685.68C1164.53 633.933 1134.22 564.28 1159 544.467Z" fill="#78D9FF"/>
<path d="M2433.21 1023.95C2451.45 971.28 2581 1000.96 2610.56 1073.2C2640.12 1145.45 2630.27 1201.28 2659.83 1250.55C2689.37 1299.81 2607.28 1381.91 2546.52 1372.05C2485.76 1362.2 2508.76 1250.55 2508.76 1201.28C2508.76 1152.03 2403.66 1109.33 2433.21 1023.95Z" fill="#78D9FF"/>
<path d="M2022.71 403.813C2067.67 363.64 2163.92 432.813 2190.2 488.64C2216.46 544.466 2193.48 692.253 2113.03 688.973C2032.56 685.68 2064.56 570.147 2035.84 546.08C1984.95 503.413 1986.59 436.093 2022.71 403.813Z" fill="#78D9FF"/>
<path d="M1468.29 61.7066C1500.17 111.813 1476.45 179.933 1395.45 195.267C1314.44 210.587 1299.12 142.72 1255.33 158.04C1211.54 173.373 1163.37 184.32 1143.66 149.28C1123.96 114.253 1145.85 61.7066 1233.44 61.7066C1321.01 61.7066 1409.78 -30.24 1468.29 61.7066Z" fill="#78D9FF"/>
<path d="M1027.63 466.133C1027.63 507.16 996.758 540.427 958.665 540.427C920.572 540.427 889.705 507.16 889.705 466.133C889.705 425.093 920.572 391.84 958.665 391.84C996.758 391.84 1027.63 425.093 1027.63 466.133Z" fill="#78D9FF"/>
<path d="M659.532 786.4C635.038 774.053 554.718 902.44 609.452 917.76C664.185 933.08 698.665 806.107 659.532 786.4Z" fill="#78D9FF"/>
<path d="M445.252 1167.35C445.252 1167.35 552.532 1226.47 513.118 1347.97C473.718 1469.48 388.332 1454.16 362.052 1416.95C335.785 1379.72 335.785 1329.36 379.572 1294.33C423.358 1259.31 445.252 1167.35 445.252 1167.35Z" fill="#78D9FF"/>
<path d="M2722.21 1821.97C2722.21 1821.97 2755.05 1871.24 2738.64 1959.91C2722.21 2048.57 2695.95 2222.64 2787.91 2271.89C2879.85 2321.16 2915.97 2147.11 2879.85 2094.56C2843.73 2042.01 2899.56 1861.39 2722.21 1821.97Z" fill="#78D9FF"/>
<path d="M2909.41 2528.06C2909.41 2575.22 2877.8 2613.44 2838.8 2613.44C2799.81 2613.44 2768.2 2575.22 2768.2 2528.06C2768.2 2480.9 2799.81 2442.67 2838.8 2442.67C2877.8 2442.67 2909.41 2480.9 2909.41 2528.06Z" fill="#78D9FF"/>
<path d="M68.6782 2646.28C129.554 2614.72 180.332 2665.99 186.905 2761.23C193.478 2856.47 282.145 2938.56 236.172 2987.83C190.185 3037.1 136.732 2833.48 94.9502 2814.59C30.8395 2785.6 -19.9925 2692.26 68.6782 2646.28Z" fill="#78D9FF"/>
<path d="M2654.72 2741.51C2597.41 2800.66 2673.69 2861.86 2538.34 3017.36C2481.98 3082.06 2579.94 3275.75 2308.45 3273.54C2308.45 3273.54 2150.8 3418.02 1993.14 3437.78C1835.49 3457.47 1769.84 3431.19 1618.77 3516.6C1467.72 3601.94 1132.72 3457.47 994.745 3395.07C856.865 3332.67 804.318 3326.08 686.118 3326.08C567.838 3326.08 613.878 3142.15 528.452 3063.32C443.038 2984.58 344.532 2951.71 337.945 2879.48C331.425 2807.24 265.705 2774.38 272.292 2662.68C278.878 2551.07 167.185 2518.2 154.092 2380.24C140.918 2242.35 213.145 2216.08 186.878 2137.26C160.598 2058.43 154.092 1992.78 193.465 1913.95C198.865 1903.15 204.265 1894.18 209.732 1886.56C243.478 1838.46 275.865 1842.19 298.572 1762.88C324.838 1670.88 252.598 1631.51 331.425 1592.12C410.252 1552.68 436.532 1670.88 390.492 1789.16C344.532 1907.36 285.385 2019.06 364.212 2038.74C443.038 2058.43 423.358 1815.43 528.452 1703.74C633.558 1592.12 587.598 1565.86 725.492 1454.16C863.452 1342.47 876.545 1388.51 922.518 1270.23C968.558 1152.03 1098.26 1027.24 1230.44 968.095C1362.61 909.042 1421.74 882.762 1401.98 784.175C1382.29 685.655 1492.48 685.655 1496.53 580.562C1500.57 475.535 1408.57 403.215 1329.74 429.495C1250.92 455.762 1172.09 455.762 1198.37 370.428C1224.64 285.015 1390.08 291.602 1468.26 330.975C1500.5 347.228 1530.6 340.069 1562.18 332.922C1607.3 322.709 1655.48 312.495 1717.29 370.428C1822.4 468.948 1960.28 501.815 1940.6 731.695C1920.9 961.509 1901.22 1040.34 1986.56 1053.52C2071.97 1066.62 1999.73 948.415 1999.73 856.495C1999.73 764.482 2150.8 771.069 2190.17 843.309C2229.62 915.549 2177.08 1040.34 2216.45 1086.39C2255.9 1132.35 2328.14 1125.76 2347.82 1191.4C2367.52 1257.14 2334.73 1526.4 2426.65 1585.54C2472.33 1614.88 2490.45 1579.4 2506.78 1543.92C2523.33 1507.99 2538.05 1472.07 2577.72 1503.46C2656.54 1565.86 2676.24 1677.47 2630.26 1789.16C2599.54 1863.78 2596.45 2050.16 2614.24 2210.6C2622.89 2289.98 2636.7 2363.1 2654.72 2413.11C2709.09 2564.18 2711.96 2682.38 2654.72 2741.51Z" fill="#78D9FF"/>
<path d="M1565.9 1067.42C1738.37 1012.95 1883.12 1314.28 1823.1 1443.76C1763.09 1573.24 1737.42 1972.64 1960.3 1922.98C2183.18 1873.31 2020.29 1489.19 2140.32 1496.92C2260.34 1504.66 2208.9 1856.16 2286.06 1967.62C2363.22 2079.07 2629.44 2842.08 2200.56 3107.86C1771.67 3373.63 1164.78 3365.06 932.398 3167.87C838.892 3088.54 771.238 3005.55 721.372 2925.08C697.692 2886.86 683.452 2856.55 673.732 2829.98C652.838 2772.86 656.492 2752.72 635.425 2695.4C631.198 2683.9 614.105 2638.7 582.478 2590.08C536.145 2518.84 515.132 2527.19 471.812 2465.16C457.345 2444.46 411.425 2374.44 407.185 2280.27C406.078 2255.59 402.972 2186.64 432.318 2174.35C448.825 2167.44 467.732 2181.74 487.998 2196.03C508.505 2210.5 530.412 2224.95 552.585 2217.44C575.705 2209.6 585.758 2182.44 592.078 2165.38C610.732 2115.02 592.025 2083.86 583.105 2009.2C576.212 1951.47 567.905 1882.06 601.745 1823.48C607.292 1813.88 623.278 1782.52 676.318 1753.28C862.892 1650.4 1030.44 1744.71 1152.43 1556.1C1274.41 1367.48 1276.77 1355.08 1391.33 1305.56C1505.89 1256.03 1403.01 1118.86 1565.9 1067.42Z" fill="#78AEFF"/>
<path d="M359.985 1612.52C356.252 1612.52 351.105 1613.68 343.985 1617.24C317.932 1630.27 318.638 1633.52 325.452 1664.7C330.998 1690.16 338.625 1725.04 325.598 1770.59C308.758 1829.56 285.758 1850.03 263.518 1869.83C248.185 1883.47 233.705 1896.35 218.625 1926.51C182.492 1998.78 189.905 2057.32 213.585 2128.36C229.412 2175.84 216.078 2209.88 203.185 2242.8C190.372 2275.5 175.865 2312.54 182.065 2377.6C187.891 2438.79 215.985 2477.32 243.158 2514.59C273.185 2555.78 304.252 2598.36 300.372 2664.36C296.972 2721.98 314.785 2754.3 333.638 2788.5C347.945 2814.47 362.745 2841.32 365.985 2876.91C369.078 2911.06 407.105 2937.62 455.252 2971.26C483.945 2991.31 516.465 3014.03 547.531 3042.7C590.531 3082.4 604.358 3141.56 616.572 3193.75C633.878 3267.8 645.025 3297.96 686.092 3297.96C803.892 3297.96 862.025 3304.14 1006.38 3369.43C1380.78 3538.8 1538.52 3529.63 1604.93 3492.08C1719.85 3427.12 1789.61 3423.46 1877.93 3418.82C1910.28 3417.11 1946.94 3415.19 1989.66 3409.84C2136.69 3391.46 2287.9 3254.19 2289.42 3252.82C2294.61 3248.06 2301.38 3245.42 2308.42 3245.42H2308.65C2472.81 3246.75 2479.46 3178.32 2487.12 3099.08C2490.8 3061.07 2494.26 3025.15 2517.09 2998.92C2592.86 2911.88 2596.82 2858.82 2600.01 2816.18C2602.36 2784.94 2604.77 2752.63 2634.49 2721.95C2681.52 2673.4 2679.24 2564.32 2628.22 2422.64C2570.22 2261.54 2556.56 1894.28 2604.25 1778.43C2645.4 1678.5 2628.13 1579.2 2560.26 1525.47C2555.98 1522.1 2553.16 1520.6 2551.62 1519.96C2546.41 1525.03 2538.69 1541.84 2533.93 1552.22C2520.92 1580.59 2506.17 1612.75 2474.02 1622.15C2454.69 1627.8 2433.62 1623.44 2411.44 1609.19C2335.32 1560.24 2331.34 1415.27 2328.16 1298.78C2326.98 1256.3 2325.89 1216.18 2320.89 1199.51C2313.33 1174.32 2295.36 1165.02 2264.25 1150.72C2241.34 1140.2 2215.38 1128.28 2195.12 1104.64C2168.09 1073.12 2171.53 1025.06 2175.17 974.162C2178.26 930.855 2181.46 886.055 2165.5 856.789C2147.81 824.349 2095.36 810.109 2060.3 819.055C2027.84 827.335 2027.84 849.255 2027.84 856.455C2027.84 884.709 2036.08 918.122 2043.33 947.615C2055.44 996.762 2065.89 1039.2 2041.77 1065.56C2028.53 1080.04 2008.52 1085.32 1982.3 1081.3C1881.38 1065.78 1889.42 979.695 1905.44 808.202C1907.68 784.122 1910.13 757.855 1912.58 729.255C1926.56 566.162 1859.01 515.749 1773.48 451.922C1748.48 433.255 1722.61 413.962 1698.05 390.935C1646.52 342.615 1611.45 350.562 1567.06 360.642C1533.94 368.148 1496.42 376.669 1455.64 356.122C1407.36 331.802 1315.68 320.829 1261.32 343.989C1241.96 352.242 1229.82 363.922 1225.29 378.682C1220.45 394.389 1220.06 406.695 1224.29 410.815C1231.72 418.082 1263.57 421.948 1320.86 402.842C1364.94 388.148 1413.3 397.042 1453.56 427.242C1500.41 462.388 1526.97 520.122 1524.62 581.668C1522.28 643.268 1489.49 675.762 1463.16 701.868C1435.58 729.215 1422.64 743.895 1429.6 778.695C1453.66 899.082 1374.2 934.628 1242.54 993.508L1241.92 993.789C1114.48 1050.79 991.185 1171.35 948.758 1280.44C917.438 1360.95 896.905 1375.38 849.372 1403.03C825.358 1416.99 792.478 1436.12 743.185 1476.02C669.398 1535.75 652.065 1568.36 631.985 1606.12C615.585 1636.98 596.985 1671.96 548.931 1723.03C502.478 1772.39 481.638 1855.83 464.878 1922.9C455.078 1962.18 446.598 1996.1 434.331 2021.36C410.251 2070.92 375.798 2070.62 357.425 2066.02C327.505 2058.54 313.171 2041.07 306.398 2027.75C282.491 1980.63 311.638 1909.06 345.372 1826.16C351.678 1810.68 358.118 1794.87 364.305 1778.95C395.225 1699.46 386.638 1632.08 368.892 1615.91C367.638 1614.76 365.172 1612.52 359.985 1612.52ZM1497.41 3571.22C1375.68 3571.22 1205.6 3521.28 983.198 3420.68C847.665 3359.38 799.585 3354.22 686.092 3354.22C596.318 3354.22 577.185 3272.34 561.798 3206.55C550.931 3160.07 539.692 3112.02 509.372 3084.03C481.118 3057.95 451.585 3037.31 423.038 3017.36C365.292 2977.02 315.438 2942.18 309.972 2882C307.798 2858.15 296.945 2838.46 284.372 2815.64C264.545 2779.67 239.878 2734.9 244.212 2661.06C246.918 2615.2 225.198 2585.43 197.705 2547.72C167.545 2506.36 133.358 2459.47 126.066 2382.95C118.6 2304.51 136.452 2258.92 150.812 2222.3C162.532 2192.36 169.612 2174.3 160.225 2146.14C136.478 2074.91 121.024 1995.95 168.318 1901.36C188.238 1861.52 209.251 1842.83 226.131 1827.8C245.305 1810.74 259.158 1798.4 271.518 1755.14C280.652 1723.2 275.492 1699.56 270.492 1676.68C262.985 1642.31 253.652 1599.52 318.825 1566.94C351.585 1550.56 383.638 1553.26 406.772 1574.32C448.465 1612.32 452.651 1706.96 416.731 1799.34C410.425 1815.54 403.878 1831.62 397.478 1847.36C372.532 1908.63 344.265 1978.07 356.558 2002.3C357.518 2004.19 359.771 2008.63 371.065 2011.44C372.545 2011.82 373.158 2011.74 373.158 2011.72C385.838 2007.26 401.158 1945.92 410.318 1909.27C428.652 1835.87 451.465 1744.52 507.972 1684.48C550.865 1638.91 566.865 1608.82 582.331 1579.72C604.331 1538.34 625.105 1499.24 707.798 1432.31C760.451 1389.68 795.505 1369.3 821.092 1354.4C860.358 1331.56 870.905 1325.43 896.331 1260.06C944.371 1136.52 1077.04 1005.92 1218.96 942.442L1219.57 942.175C1357.22 880.602 1389.14 863.269 1374.44 789.722C1361.24 723.722 1395.8 689.455 1423.56 661.935C1446.82 638.868 1466.92 618.949 1468.42 579.522C1470.06 536.415 1451.89 496.309 1419.81 472.229C1394.53 453.282 1364.96 447.442 1338.65 456.202C1288.18 473.042 1220.54 485.802 1184.98 451.055C1170.66 437.069 1156.7 410.282 1171.52 362.148C1181.02 331.255 1204.45 307.082 1239.26 292.242C1311.08 261.642 1420.64 275.508 1480.94 305.882C1502.58 316.788 1523.04 312.949 1554.61 305.789C1603 294.815 1663.2 281.162 1736.52 349.895C1758.78 370.762 1783.36 389.108 1807.12 406.842C1894.7 472.215 1985.28 539.802 1968.62 734.068C1966.16 762.815 1963.69 789.215 1961.44 813.429C1944.46 995.269 1947.76 1019.08 1990.86 1025.71C1995.29 1026.39 1998.24 1026.44 2000.04 1026.35C2001.88 1014.5 1994.04 982.682 1988.72 961.068C1980.69 928.468 1971.6 891.535 1971.6 856.455C1971.6 810.855 1999.56 776.495 2046.41 764.549C2102.5 750.242 2182.86 771.149 2214.89 829.855C2238.76 873.615 2234.78 929.162 2231.28 978.175C2228.73 1013.75 2225.85 1054.08 2237.82 1068.04C2250.05 1082.32 2268.34 1090.72 2287.72 1099.6C2319.72 1114.29 2359.53 1132.59 2374.77 1183.35C2381.92 1207.16 2383 1246.91 2384.38 1297.23C2386.9 1389.52 2390.73 1529 2441.85 1561.87C2451.21 1567.88 2456.53 1568.66 2458.22 1568.18C2465.74 1565.98 2476.42 1542.68 2482.81 1528.76C2495.05 1502.07 2508.94 1471.8 2538.64 1464.68C2556.66 1460.35 2575.7 1465.96 2595.17 1481.38C2683.24 1551.1 2707.22 1676.1 2656.26 1799.84C2614.04 1902.4 2628.69 2257.88 2681.14 2403.59C2741.44 2571.02 2739.26 2694.64 2674.89 2761.1C2659.97 2776.48 2658.36 2790.39 2656.1 2820.36C2652.5 2868.63 2647.56 2934.72 2559.52 3035.86C2548.52 3048.5 2545.89 3075.7 2543.1 3104.5C2535.57 3182.35 2524.25 3299.31 2319.09 3301.66C2283.49 3332.44 2142.1 3447.47 1996.64 3465.66C1951.92 3471.24 1914.18 3473.23 1880.89 3474.98C1796.78 3479.4 1736.01 3482.6 1632.6 3541.06C1597.05 3561.14 1552.12 3571.22 1497.41 3571.22Z" fill="#390075"/>
<path d="M1032.76 741.12C1026.97 741.12 1021.44 742.213 1016.38 744.413C995.252 753.653 991.465 772.693 986.092 808.333C982.812 830.107 979.091 854.773 967.891 878.573C954.038 908.027 915.612 940.373 866.972 981.32C813.478 1026.36 752.851 1077.4 720.491 1130.2C684.318 1189.21 671.145 1255.64 687.691 1295.49C694.411 1311.67 705.451 1321.68 720.531 1325.27C736.425 1329.05 749.545 1326.23 760.625 1316.63C782.065 1298.05 793.825 1256.43 789.878 1213.05C784.292 1151.69 795.185 1003.32 1016.2 950.88C1196.44 908.107 1262.36 744.853 1256.2 671.013C1251.77 617.907 1220.49 568.747 1195.2 557.867C1186.46 554.107 1179.6 555.013 1172.21 560.907C1166.41 567.867 1174.88 605.547 1179.44 625.787C1183.8 645.173 1188.3 665.213 1189.86 683.933C1197.16 771.493 1140.21 829.533 1137.78 831.96C1131.42 838.307 1121.76 839.947 1113.66 836.027C1105.58 832.107 1100.86 823.507 1101.92 814.587C1104.28 794.587 1091.76 770.707 1070.78 755.16C1058.33 745.947 1044.97 741.12 1032.76 741.12ZM733.612 1369.08C726.198 1369.08 718.571 1368.16 710.758 1366.31C682.611 1359.6 660.585 1340.2 648.731 1311.68C626.571 1258.32 640.292 1180.33 684.518 1108.16C720.452 1049.53 783.865 996.147 839.798 949.053C880.945 914.427 919.798 881.707 929.731 860.613C938.305 842.4 941.385 821.88 944.385 802.053C949.838 765.827 956.025 724.773 999.465 705.773C1029.18 692.76 1065.25 698.547 1095.9 721.267C1111.88 733.12 1124.53 748.187 1132.89 764.533C1142.38 744.8 1150.4 718.293 1147.82 687.44C1146.5 671.627 1142.33 653.027 1138.28 635.053C1128.37 591.027 1119.02 549.44 1145.81 528C1165.37 512.36 1188.84 509.2 1211.88 519.12C1254.92 537.64 1292.85 602.827 1298.24 667.52C1305.41 753.573 1230.82 943.307 1025.93 991.92C843.838 1035.13 826.198 1146.61 831.891 1209.23C837.078 1266.37 819.958 1321.04 788.252 1348.51C772.518 1362.13 753.918 1369.08 733.612 1369.08Z" fill="#390075"/>
<path d="M2484.14 1018.29C2483.33 1018.29 2482.53 1018.31 2481.73 1018.33C2474.37 1018.53 2456.85 1020.16 2453.14 1030.84V1030.85C2440.16 1068.36 2459.56 1094.28 2490.63 1129.53C2510.8 1152.41 2529.85 1174.03 2529.85 1201.28C2529.85 1211.64 2528.93 1224.19 2527.96 1237.45C2524.8 1280.84 2520.03 1346.4 2549.89 1351.24C2575.68 1355.37 2613.16 1334.51 2633.43 1304.61C2638.88 1296.56 2650.62 1276.21 2641.73 1261.4C2624.16 1232.11 2619.05 1201.75 2613.65 1169.6C2609 1141.93 2604.18 1113.33 2591.04 1081.19C2575.65 1043.59 2523.02 1018.29 2484.14 1018.29ZM2557.2 1394C2552.49 1394 2547.81 1393.63 2543.14 1392.88C2475.14 1381.85 2481.61 1293.11 2485.89 1234.39C2486.8 1221.91 2487.65 1210.11 2487.65 1201.28C2487.65 1189.96 2473.08 1173.43 2458.98 1157.43C2430.41 1125.01 2391.28 1080.61 2413.29 1017.04C2421.96 992 2446.48 977.094 2480.57 976.16C2534.41 974.774 2606.8 1008.31 2630.08 1065.23C2645.01 1101.71 2650.45 1134.05 2655.25 1162.6C2660.18 1191.92 2664.44 1217.25 2677.9 1239.69C2692.97 1264.8 2689.48 1297.08 2668.34 1328.28C2645.08 1362.61 2601 1393.99 2557.2 1394Z" fill="#390075"/>
<path d="M2056.4 412.933C2048.26 412.933 2041.69 415.133 2036.76 419.546C2024.28 430.693 2017.29 448 2017.6 467.013C2017.97 490.706 2029.26 513.053 2049.4 529.92C2066.22 544.026 2069.2 569.346 2072.33 596.16C2077.94 644 2083.86 666.666 2113.88 667.893C2129.82 668.56 2143.12 660.386 2154.69 642.946C2181.41 602.68 2186.05 529.373 2171.1 497.626C2155.77 465.04 2108.37 422.426 2067.88 414.186C2063.77 413.346 2059.93 412.933 2056.4 412.933ZM2115.73 710.12C2114.54 710.12 2113.36 710.093 2112.16 710.04C2042.88 707.213 2035.09 640.76 2030.44 601.066C2028.92 588.093 2026.37 566.386 2022.22 562.186C1993.06 537.76 1975.98 503.28 1975.42 467.68C1974.92 436.413 1987.04 407.4 2008.65 388.08C2025.96 372.626 2049.36 367.373 2076.29 372.853C2131.02 383.987 2189.24 437.066 2209.28 479.653C2229.73 523.106 2225.76 612.146 2189.84 666.266C2170.76 695.013 2145.2 710.12 2115.73 710.12Z" fill="#390075"/>
<path d="M1267.92 134.666C1287.9 134.666 1303.76 145.68 1317.12 154.96C1336.69 168.56 1355.17 181.413 1391.53 174.533C1423.46 168.493 1446.4 152.813 1456.1 130.373C1464.05 112.026 1462.01 91.1198 1450.5 73.0398C1422.61 29.1865 1390.21 38.3999 1330.64 59.9466C1299.57 71.1866 1267.44 82.7997 1233.44 82.7997C1198 82.7997 1172 92.5199 1162.08 109.48C1156.7 118.68 1156.69 129.413 1162.05 138.947C1171.6 155.92 1198.21 155.68 1248.36 138.133C1255.29 135.706 1261.81 134.666 1267.92 134.666ZM1372.26 218.653C1334.85 218.653 1311.21 202.226 1293.05 189.6C1275.9 177.693 1270.48 175.067 1262.29 177.947C1230.61 189.027 1156.43 215 1125.29 159.626C1112.57 137.026 1112.72 110.32 1125.66 88.1867C1136.05 70.4267 1163.88 40.6132 1233.44 40.6132C1260.04 40.6132 1288.64 30.2664 1316.29 20.2664C1370.85 0.533021 1438.76 -24 1486.09 50.3867C1505.24 80.4667 1508.41 115.733 1494.82 147.133C1479.6 182.293 1444.81 207.387 1399.37 215.987C1389.6 217.84 1380.58 218.653 1372.26 218.653Z" fill="#390075"/>
<path d="M958.665 412.933C932.265 412.933 910.798 436.8 910.798 466.133C910.798 495.467 932.265 519.333 958.665 519.333C985.065 519.333 1006.53 495.467 1006.53 466.133C1006.53 436.8 985.065 412.933 958.665 412.933ZM958.665 561.52C909.011 561.52 868.612 518.733 868.612 466.133C868.612 413.533 909.011 370.747 958.665 370.747C1008.32 370.747 1048.72 413.533 1048.72 466.133C1048.72 518.733 1008.32 561.52 958.665 561.52Z" fill="#390075"/>
<path d="M653.052 809.84C637.572 823.08 610.572 866.266 611.865 891.306C612.145 896.613 613.212 896.906 615.145 897.453C627.332 900.893 640.505 882.72 647.585 864.44C657.025 840.066 656.278 818.96 653.052 809.84ZM618.905 940.2C613.918 940.2 608.865 939.493 603.772 938.066C586.185 933.146 574.132 919.893 570.705 901.72C562.932 860.466 601.425 796.053 630.172 774.427C647.545 761.333 660.892 763.467 669.025 767.56C702.718 784.533 703.532 836.813 686.918 879.68C671.972 918.24 646.772 940.2 618.905 940.2Z" fill="#390075"/>
<path d="M456.958 1202.2C446.105 1234.6 425.025 1284.97 392.745 1310.8C355.105 1340.92 361.971 1380.25 379.291 1404.77C386.705 1415.29 403.998 1425.19 424.371 1422.09C453.225 1417.72 477.611 1389.09 493.065 1341.47C515.985 1270.81 481.838 1224.79 456.958 1202.2ZM417.131 1464.83C388.451 1464.83 360.558 1451.39 344.825 1429.11C309.238 1378.69 318.105 1316.49 366.398 1277.87C397.558 1252.93 419.078 1186.11 424.731 1162.45C426.265 1156.05 430.705 1150.72 436.731 1148.07C442.745 1145.4 449.665 1145.71 455.438 1148.88C497.811 1172.24 568.611 1245.27 533.185 1354.48C505.358 1440.29 457.025 1459.81 430.691 1463.8C426.185 1464.49 421.651 1464.83 417.131 1464.83Z" fill="#390075"/>
<path d="M2757.85 1855.99C2764.17 1881.87 2767.81 1918.22 2759.37 1963.75C2729.3 2126.1 2742.25 2223.52 2797.86 2253.31C2816.57 2263.34 2830.78 2261.24 2843.93 2246.55C2874.04 2212.91 2880.8 2133.16 2862.48 2106.51C2848.65 2086.4 2845.8 2056.96 2842.48 2022.88C2836.37 1959.99 2829.56 1889.86 2757.85 1855.99ZM2819.02 2301.63C2805.72 2301.63 2791.85 2297.95 2777.93 2290.5C2678.48 2237.22 2696.04 2074.11 2717.9 1956.07C2732.36 1878 2704.94 1834.1 2704.66 1833.68C2699.89 1826.51 2699.94 1817.16 2704.81 1810.06C2709.68 1802.95 2718.38 1799.52 2726.8 1801.39C2866.37 1832.4 2877.26 1944.59 2884.46 2018.82C2887.1 2045.9 2889.58 2071.48 2897.24 2082.62C2928.3 2127.8 2916.86 2228.34 2875.36 2274.68C2859.38 2292.52 2839.9 2301.63 2819.02 2301.63Z" fill="#390075"/>
<path d="M2838.8 2463.76C2811.5 2463.76 2789.29 2492.6 2789.29 2528.06C2789.29 2563.51 2811.5 2592.35 2838.8 2592.35C2866.1 2592.35 2888.32 2563.51 2888.32 2528.06C2888.32 2492.6 2866.1 2463.76 2838.8 2463.76ZM2838.8 2634.54C2788.24 2634.54 2747.1 2586.78 2747.1 2528.06C2747.1 2469.35 2788.24 2421.58 2838.8 2421.58C2889.36 2421.58 2930.5 2469.35 2930.5 2528.06C2930.5 2586.78 2889.36 2634.54 2838.8 2634.54Z" fill="#390075"/>
<path d="M103.654 2658.08C95.7315 2658.08 87.2875 2660.39 78.3875 2665.02C53.8195 2677.75 41.6489 2694.71 42.2063 2715.4C42.9996 2745.03 69.985 2780.15 103.638 2795.36C126.226 2805.58 143.172 2837.87 168.932 2889.7C182.398 2916.76 206.985 2966.23 220.412 2973.79C220.518 2973.68 220.625 2973.56 220.745 2973.43C236.718 2956.34 224.758 2927.84 203.945 2882.79C187.518 2847.26 168.918 2806.99 165.865 2762.68C162.478 2713.6 146.345 2676.38 122.701 2663.1C116.753 2659.75 110.393 2658.08 103.654 2658.08ZM221.212 3016.59C219.212 3016.59 217.345 3016.43 215.638 3016.19C182.292 3011.32 158.598 2963.66 131.161 2908.48C118.254 2882.51 96.6516 2839.07 86.2223 2833.79C37.5316 2811.78 1.26761 2762.46 0.0342733 2716.55C-0.964393 2679.39 19.969 2647.79 58.9663 2627.56C88.0063 2612.5 117.984 2612.06 143.358 2626.31C179.972 2646.88 203.518 2695.52 207.945 2759.78C210.465 2796.35 226.625 2831.3 242.238 2865.1C264.598 2913.48 287.718 2963.51 251.585 3002.23C240.972 3013.59 229.918 3016.59 221.212 3016.59Z" fill="#390075"/>
<path d="M1668.25 2418.04C1685.11 2501.91 1631.28 2590.18 1553.37 2623.4C1444.32 2673.04 1307.52 2614.62 1274.57 2498.3C1266.99 2471.74 1265.39 2443.91 1270.63 2418.04C1271.97 2411.35 1278.51 2407.01 1285.2 2408.37C1290.12 2409.37 1293.77 2413.16 1294.81 2417.77C1312.68 2503.09 1383.61 2566.93 1468.29 2566.05C1552.39 2565.4 1621.32 2502.43 1639.44 2418.04C1642.45 2402.47 1665.31 2402.59 1668.25 2418.04Z" fill="#390075"/>
<path d="M703.478 2548.42C634.772 2548.42 569.958 2485.01 553.065 2396.69C534.465 2299.46 581.012 2208.83 657.025 2194.3C663.998 2192.96 670.985 2192.31 677.932 2192.31C746.638 2192.31 811.452 2255.72 828.345 2344.04C846.945 2441.28 800.398 2531.89 724.385 2546.44C717.412 2547.77 710.425 2548.42 703.478 2548.42Z" fill="#BCD7FF"/>
<path d="M858.918 1697.87C906.358 1646.59 954.972 1606.73 993.305 1591.76C1135.85 1536.07 1093.74 1404.45 1188.18 1278.31C1253.81 1190.64 1351.29 1131.73 1417.09 1131.73C1438.7 1131.73 1456.92 1138.1 1469.44 1151.9C1449.53 1209.1 1463.1 1274.52 1391.33 1305.56C1276.77 1355.08 1274.41 1367.48 1152.42 1556.09C1071.9 1680.59 971.518 1681.81 858.918 1697.87Z" fill="#BCECFF"/>
<path d="M739.252 2099.62C735.692 2099.62 732.145 2099.08 728.598 2097.98C609.692 2060.98 729.945 1837.26 858.918 1697.87C971.518 1681.82 1071.91 1680.59 1152.43 1556.1C1274.41 1367.48 1276.77 1355.08 1391.33 1305.56C1463.1 1274.52 1449.53 1209.1 1469.44 1151.9C1473.65 1156.54 1477.21 1162 1480.05 1168.36C1517.08 1251.18 1341.79 1328.52 1299.09 1447.02C1256.39 1565.5 1164.61 1748.68 1025.36 1806.91C892.399 1862.5 814.412 2099.63 739.252 2099.62Z" fill="#BCD7FF"/>
<path d="M1495.65 3456.06C1338.98 3456.07 1124.3 3366.67 1022.88 3322.62C893.292 3266.28 843.905 3260.34 732.812 3260.34C621.652 3260.34 664.918 3094.27 584.638 3023.11C504.358 2952 411.772 2922.34 405.585 2857.12C399.465 2791.9 337.692 2762.23 343.878 2661.39C350.078 2560.62 245.105 2530.95 232.785 2406.39C220.412 2281.9 288.305 2258.18 263.598 2187C238.905 2115.84 232.785 2056.56 269.798 1985.4C274.865 1975.66 279.945 1967.55 285.092 1960.67C286.652 2001.03 288.892 2041.38 302.692 2066.39C316.945 2092.26 335.825 2116.12 344.545 2144.15C366.932 2216.11 316.878 2289.35 309.558 2364.18C295.985 2502.56 423.865 2609.64 511.305 2720.38C589.118 2818.92 644.918 2940.11 754.812 3004.62C766.358 3011.39 778.225 3017.36 790.372 3022.59C829.585 3071.44 876.345 3120.31 932.398 3167.87C1042.1 3260.96 1235.25 3312.02 1453.76 3312.02C1698.09 3312 1974.15 3248.16 2200.56 3107.86C2358.45 3010.02 2422.14 2844.75 2435.73 2669.43C2454.58 2632.11 2465.28 2590.12 2473.56 2549.08C2498.63 2424.74 2508.09 2297.52 2501.61 2171.03C2516.08 2198.4 2530.56 2225.78 2544.96 2253.23C2553.09 2324.9 2566.06 2390.91 2583 2436.06C2634.1 2572.44 2636.8 2679.16 2583 2732.55C2529.13 2785.95 2600.84 2841.2 2473.63 2981.6C2420.96 3039.68 2511.64 3212.91 2261.89 3212.91C2260.45 3212.91 2259.03 3212.9 2257.57 3212.88C2257.57 3212.88 2109.4 3343.32 1961.23 3361.18C1813.05 3378.95 1751.36 3355.22 1609.37 3432.34C1578.45 3449.12 1539.29 3456.06 1495.65 3456.06Z" fill="#68AEE0"/>
<path d="M1453.76 3312.02C1235.25 3312.02 1042.1 3260.96 932.398 3167.87C876.345 3120.31 829.585 3071.44 790.372 3022.59C838.852 3043.44 891.705 3052.27 945.612 3052.27C1021.18 3052.27 1098.85 3034.94 1169.64 3009.06C1303.56 2960.11 1425.84 2883.78 1562.29 2841.64C1675.33 2806.64 1794.26 2796.3 1913.5 2796.3C1960.78 2796.3 2008.12 2797.92 2055.16 2800.28C2084.92 2801.79 2115.74 2803.2 2146.53 2803.2C2239.12 2803.2 2331.38 2790.38 2393.65 2728.47C2411.16 2711.08 2424.81 2691.03 2435.73 2669.43C2422.14 2844.75 2358.45 3010.02 2200.56 3107.86C1974.14 3248.16 1698.09 3312 1453.76 3312.02Z" fill="#688BE0"/>
<path d="M1861.78 1854.8C1951.96 1845.6 2035.23 1944.32 2047.76 2075.28C2060.29 2206.26 1997.35 2319.87 1907.17 2329.07C1817 2338.26 1733.73 2239.55 1721.2 2108.58C1708.66 1977.62 1771.61 1863.99 1861.78 1854.8Z" fill="#390075"/>
<path d="M1868.12 1909.65C1896.86 1921.65 1909.22 1966.23 1895.76 2009.21C1882.28 2052.21 1848.06 2077.33 1819.33 2065.33C1790.6 2053.35 1778.22 2008.77 1791.7 1965.77C1805.17 1922.79 1839.38 1897.65 1868.12 1909.65Z" fill="white"/>
<path d="M1964.83 2191.22C1978.44 2201.28 1980.09 2225.86 1968.53 2246.1C1956.97 2266.35 1936.56 2274.6 1922.96 2264.54C1909.36 2254.47 1907.7 2229.88 1919.26 2209.64C1930.82 2189.4 1951.23 2181.15 1964.83 2191.22Z" fill="#B199C5"/>
<path d="M1088.48 1854.8C998.305 1845.6 915.038 1944.32 902.505 2075.28C889.972 2206.26 952.918 2319.87 1043.09 2329.07C1133.26 2338.26 1216.53 2239.55 1229.06 2108.58C1241.6 1977.62 1178.65 1863.99 1088.48 1854.8Z" fill="#390075"/>
<path d="M1082.14 1909.65C1053.41 1921.65 1041.04 1966.23 1054.52 2009.21C1067.99 2052.21 1102.2 2077.33 1130.93 2065.33C1159.67 2053.35 1172.04 2008.77 1158.57 1965.77C1145.09 1922.79 1110.88 1897.65 1082.14 1909.65Z" fill="white"/>
<path d="M985.438 2191.22C971.838 2201.28 970.185 2225.86 981.745 2246.1C993.305 2266.35 1013.7 2274.6 1027.3 2264.54C1040.9 2254.47 1042.57 2229.88 1031 2209.64C1019.45 2189.4 999.038 2181.15 985.438 2191.22Z" fill="#B199C5"/>
</svg>
