<svg width="2815" height="2897" viewBox="0 0 2815 2897" fill="none" xmlns="http://www.w3.org/2000/svg">
<path d="M2787.26 1907.57L2780.68 1925.78L2616.75 2378.09L2597.63 2389.05L2473.58 2459.9L2319 2796.33L1937.11 2869.07H675.845L391.325 2568.99L100.391 2441.7L27.6367 2182.57L182.205 1623.37L232.218 1205.13L495.885 886.914L468.605 527.767L595.911 441.34L632.325 250.421L859.645 241.287L1046.02 373.193L1209.66 209.474L1305.15 264.021L1418.78 163.993H1600.7L1728 27.6336L1887.1 150.393L1909.84 345.847L1987.12 450.474L2173.51 418.593L2218.99 532.3L2378.08 564.1L2541.72 964.207L2500.86 1232.39L2596.35 1314.22L2603.15 1600.7L2766.18 1872.45L2786.72 1906.66L2787.26 1907.57Z" fill="#D38871"/>
<path d="M2541.75 964.18L2500.85 1232.41L2330.35 1348.34L2193.97 1041.46L1975.74 1177.86L1825.71 1116.47L1662.08 902.767L2046.2 945.993L2100.77 707.314L1987.11 450.447L2173.51 418.62L2218.97 532.274L2378.08 564.1L2541.75 964.18Z" fill="#8F5C46"/>
<path d="M27.6367 2182.57L160.671 1701.25L159.538 1710.77L28.3927 2185.29L27.6367 2182.57Z" fill="#C99F5F"/>
<path d="M469.072 919.327L473.218 974.327L223.832 1275.31L232.218 1205.13L469.072 919.327Z" fill="#C99F5F"/>
<path d="M468.604 527.766L589.031 446.019L573.245 528.739L473.818 596.286L468.604 527.766Z" fill="#C99F5F"/>
<path d="M1933 495.299L1887.18 433.246L1864.44 237.806L1705.34 115.046L1578.03 251.406H1396.11L1363.68 279.966L1346.58 264.379L1429.22 191.633H1600.7C1608.36 191.633 1615.68 188.459 1620.9 182.859L1731.03 64.8861L1860.99 165.166L1882.39 349.033C1882.95 353.819 1884.75 358.379 1887.62 362.259L1954.68 453.073L1933 495.299Z" fill="#E5B8AA"/>
<path d="M2505.5 1018.46L2493.22 988.433L2509.9 989.619L2505.5 1018.46ZM2499.28 933.446L2469.88 931.353L2355.43 651.513L2196.32 619.699L2150.84 506.006L2049.58 523.326L2026.75 471.739L2156.14 449.606L2193.32 542.553C2196.79 551.233 2204.4 557.566 2213.56 559.393L2358.12 588.286L2499.28 933.446Z" fill="#BC9D90"/>
<path d="M209.551 1292.54L223.831 1275.31L182.205 1623.37L160.671 1701.25L209.551 1292.54Z" fill="#C99F5F"/>
<path d="M473.818 596.286L495.885 886.913L469.071 919.326L445.951 615.166L473.818 596.286Z" fill="#C99F5F"/>
<path d="M615.698 337.606L595.911 441.339L589.031 446.019L609.658 337.833L615.698 337.606Z" fill="#C99F5F"/>
<path d="M2046.2 945.993L1662.08 902.767L1825.71 1116.47L495.911 886.887L468.631 527.727L595.925 441.354L632.298 250.407L859.618 241.314L1046.02 373.154L1209.68 209.487L1305.15 264.047L1559.75 495.9L1900.72 618.66L1987.11 450.447L2100.76 707.314L2046.2 945.993Z" fill="#D38871"/>
<path d="M2068.94 722.539L1989.39 542.726L1902.96 710.966L1562.02 588.206L1307.42 356.339L1211.92 301.793L1048.3 465.433L861.845 333.606L642.925 342.326L655.365 277.153L723.325 274.419L851.325 269.299L959.978 346.153L1030.06 395.753C1034.87 399.153 1040.46 400.819 1046.02 400.819C1053.14 400.819 1060.22 398.073 1065.58 392.726L1167.47 290.779L1214.3 243.953L1288.79 286.526L1541.14 516.339C1543.83 518.779 1546.96 520.673 1550.39 521.913L1891.36 644.659C1894.44 645.766 1897.6 646.299 1900.72 646.299C1910.83 646.299 1920.46 640.726 1925.31 631.273L1985.26 514.553L2071.78 710.099L2068.94 722.539ZM501.765 599.099L497.405 541.619L542.231 511.179L611.378 464.259L598.178 533.659L501.765 599.099Z" fill="#E5B8AA"/>
<path d="M1116.48 707.313L832.338 523.179L693.671 707.313L736.431 926.233L870.978 945.993L1116.48 707.313Z" fill="#8F5C46"/>
<path d="M870.978 945.994V1191.53L645.925 1225.59L530.031 1314.22L531.085 1317.85L534.938 1330.91L535.018 1331.22L598.178 1546.07L596.738 1561.71L577.778 1771.13H768.685L864.178 1975.71L859.418 1985.99L741.418 2241.73L379.991 2200.78L100.391 2441.7L27.6367 2182.57L182.205 1623.37L232.218 1205.13H423.138L598.178 1123.3L623.178 909.58L626.511 910.114L649.845 913.514L736.431 926.207L870.978 945.994Z" fill="#D38871"/>
<path d="M874.392 945.994V1191.49L649.352 1225.59L533.418 1314.25L367.471 1573.38L185.618 1623.39L235.631 1205.13H426.578L601.618 1123.3L626.618 909.62L874.392 945.994Z" fill="#8F5C46"/>
<path d="M593.658 1771.15H595.551L593.658 1791.61L379.978 1573.38L545.925 1314.25L550.845 1330.91L545.925 1334.7L612.698 1561.74L593.658 1771.15Z" fill="#8F5C46"/>
<path d="M2787.26 1905.22L2780.63 1923.5L2541.75 1843.85L2603.14 1618.81L2787.26 1905.22Z" fill="#D38871"/>
<path d="M2616.75 2378.09L2597.63 2389.05L2473.58 2459.9L2319 2796.33L1937.11 2869.07H1286.95L1737.06 2575.87L2234.86 2541.73L2412.16 2275.79L2616.75 2378.09Z" fill="#8F5C46"/>
<path d="M1286.95 2869.07H675.845L391.325 2568.99L100.392 2441.7L379.992 2200.78L741.418 2241.73L746.178 2251.85L946.005 2678.17L1286.95 2869.07Z" fill="#8F5C46"/>
<path d="M687.725 2841.43H1934.5L2299.84 2771.83L2448.47 2448.37C2450.88 2443.13 2454.87 2438.77 2459.87 2435.91L2594.22 2359.14L2756.82 1910.51L2579.46 1614.91C2576.99 1610.81 2575.63 1606.14 2575.52 1601.35L2569.02 1327.19L2482.87 1253.38C2475.63 1247.18 2472.1 1237.67 2473.54 1228.23L2513.26 967.593L2358.12 588.287L2213.56 559.393C2204.4 557.567 2196.79 551.234 2193.32 542.554L2156.14 449.607L1991.79 477.714C1981.48 479.5 1971.1 475.287 1964.9 466.9L1887.62 362.26C1884.75 358.38 1882.95 353.82 1882.39 349.034L1860.99 165.167L1731.03 64.887L1620.9 182.86C1615.68 188.46 1608.36 191.634 1600.7 191.634H1429.22L1323.42 284.767C1314.55 292.567 1301.71 293.874 1291.44 288.02L1214.28 243.94L1065.58 392.727C1056.04 402.247 1041.04 403.527 1030.06 395.754L851.365 269.274L655.365 277.154L623.058 446.514C621.685 453.714 617.498 460.087 611.431 464.193L497.378 541.634L523.445 884.82C523.978 891.967 521.738 899.034 517.165 904.554L258.698 1216.49L209.645 1626.65C209.485 1628.02 209.218 1629.38 208.845 1630.73L56.3233 2182.51L123.458 2421.62L402.405 2543.67C405.791 2545.15 408.845 2547.3 411.378 2549.98L687.725 2841.43ZM1937.11 2896.71H675.845C668.258 2896.71 661.005 2893.59 655.778 2888.09L375.125 2592.06L89.3113 2467.02C81.7246 2463.7 76.018 2457.14 73.778 2449.17L1.0272 2190.03C-0.3328 2185.19 -0.342097 2180.06 0.997903 2175.21L155.018 1618.01L204.778 1201.85C205.418 1196.57 207.551 1191.58 210.938 1187.5L467.485 877.887L441.058 529.86C440.298 519.98 444.898 510.46 453.085 504.9L570.911 424.9L605.178 245.247C607.578 232.62 618.378 223.327 631.218 222.807L858.538 213.674C864.671 213.394 870.631 215.193 875.618 218.727L1042.96 337.167L1190.11 189.94C1198.92 181.114 1212.56 179.3 1223.38 185.474L1301.72 230.234L1400.52 143.247C1405.56 138.807 1412.06 136.367 1418.78 136.367H1588.7L1707.79 8.78022C1717.52 -1.64645 1733.59 -2.95301 1744.88 5.75366L1903.98 128.514C1909.88 133.074 1913.7 139.807 1914.55 147.207L1936.44 335.34L1999.24 420.367L2168.84 391.354C2181.71 389.14 2194.32 396.233 2199.16 408.327L2239.08 508.127L2383.51 536.993C2392.59 538.82 2400.16 545.06 2403.67 553.634L2567.31 953.74C2569.2 958.367 2569.8 963.42 2569.04 968.367L2530.48 1221.39L2614.34 1293.23C2620.28 1298.33 2623.79 1305.71 2623.98 1313.55L2630.6 1592.74L2811.18 1893.74C2815.26 1900.79 2816.02 1909.3 2813.24 1916.97L2806.68 1935.17L2642.72 2387.51C2640.5 2393.66 2636.16 2398.82 2630.48 2402.07L2494.99 2479.5L2344.12 2807.86C2340.39 2815.98 2332.96 2821.79 2324.19 2823.47L1942.28 2896.22C1940.58 2896.54 1938.84 2896.71 1937.11 2896.71Z" fill="#4C3100"/>
<path d="M687.725 2841.43H1181.03L932.498 2702.27C927.458 2699.45 923.432 2695.13 920.978 2689.89L722.965 2267.45L388.885 2229.59L151.685 2433.98L402.405 2543.67C405.791 2545.15 408.845 2547.3 411.378 2549.98L687.725 2841.43ZM1286.95 2896.71H675.845C668.258 2896.71 661.005 2893.59 655.778 2888.09L375.125 2592.06L89.3116 2467.02C80.605 2463.21 74.4716 2455.19 73.0582 2445.81C71.6449 2436.42 75.1516 2426.95 82.3516 2420.75L361.952 2179.85C367.792 2174.82 375.458 2172.46 383.098 2173.31L744.525 2214.26C754.058 2215.34 762.351 2221.29 766.431 2229.97L771.178 2240.09L967.245 2658.39L1300.44 2844.95C1311.43 2851.1 1316.86 2863.89 1313.68 2876.05C1310.51 2888.22 1299.52 2896.71 1286.95 2896.71Z" fill="#4C3100"/>
<path d="M641.391 2373.54C565.725 2447.87 484.418 2516.1 401.818 2582.42L391.351 2552.03C529.418 2551.14 667.685 2553.62 805.058 2569.03C701.978 2580.86 598.391 2584.5 494.778 2585.97C460.192 2586.38 425.605 2586.35 391.018 2586.03C375.165 2586.21 368.218 2564.89 380.871 2555.63C465.178 2491.47 551.005 2429.03 641.391 2373.54Z" fill="#4C3100"/>
<path d="M1764.34 2640.63C1832.3 2708.19 1892.74 2782.71 1950.86 2858.69L1922.3 2860.22C1973.02 2776.05 2026.26 2693.21 2088.26 2616.77C2050.11 2707.5 2002.18 2793.53 1951.88 2877.95C1945.96 2888.38 1930.34 2889.15 1923.34 2879.49C1866.06 2802.87 1810.82 2724.43 1764.34 2640.63Z" fill="#4C3100"/>
<path d="M56.3233 2182.51L115.258 2392.41L361.951 2179.85C367.791 2174.82 375.458 2172.46 383.098 2173.31L724.685 2212.02L833.698 1975.77L751.085 1798.77H577.778C570.018 1798.77 562.605 1795.5 557.378 1789.77C552.138 1784.03 549.551 1776.37 550.258 1768.63L570.165 1548.81L508.511 1339.01C508.418 1338.74 508.351 1338.46 508.271 1338.19L503.498 1321.95C500.298 1310.99 504.178 1299.19 513.245 1292.26L629.138 1203.65C632.831 1200.82 637.191 1198.97 641.791 1198.27L843.351 1167.75V969.86L647.325 941.074L625.618 1126.53C624.511 1136.03 618.551 1144.29 609.885 1148.34L434.831 1230.17C431.165 1231.87 427.178 1232.77 423.125 1232.77H256.751L209.645 1626.65C209.485 1628.02 209.218 1629.38 208.845 1630.73L56.3233 2182.51ZM100.391 2469.33C97.7246 2469.33 95.0312 2468.95 92.4045 2468.15C83.3645 2465.42 76.338 2458.26 73.778 2449.17L1.0272 2190.03C-0.3328 2185.19 -0.342097 2180.06 0.997903 2175.21L155.018 1618.01L204.778 1201.85C206.445 1187.95 218.231 1177.49 232.218 1177.49H416.991L572.525 1104.79L595.738 906.367C596.605 898.9 600.498 892.1 606.485 887.554C612.485 883.02 620.085 881.127 627.511 882.287L653.831 886.167L875.005 918.647C888.565 920.647 898.618 932.287 898.618 945.994V1191.53C898.618 1205.19 888.631 1216.81 875.125 1218.86L657.071 1251.86L561.898 1324.65L624.685 1538.29C625.671 1541.62 626.018 1545.13 625.698 1548.61L608.031 1743.49H768.685C779.418 1743.49 789.191 1749.71 793.725 1759.45L889.218 1964.03C892.671 1971.42 892.685 1979.94 889.258 1987.34L884.498 1997.61L766.511 2253.3C761.511 2264.11 750.178 2270.51 738.298 2269.18L388.885 2229.59L118.431 2462.63C113.351 2467.02 106.925 2469.33 100.391 2469.33Z" fill="#4C3100"/>
<path d="M182.205 1647.58C171.578 1647.58 161.845 1640.54 158.898 1629.81C155.351 1616.93 162.925 1603.62 175.805 1600.07L348.698 1552.53L509.645 1301.21C516.845 1289.95 531.791 1286.67 543.045 1293.89C554.298 1301.09 557.565 1316.03 550.365 1327.29L384.431 1586.42C381.205 1591.46 376.231 1595.11 370.471 1596.7L188.631 1646.71C186.485 1647.3 184.325 1647.58 182.205 1647.58Z" fill="#4C3100"/>
<path d="M577.751 1819.25C570.578 1819.25 563.405 1816.47 557.991 1810.95L344.325 1592.73C333.645 1581.82 333.818 1564.31 344.725 1553.63C355.645 1542.95 373.138 1543.15 383.805 1554.05L597.485 1772.27C608.165 1783.18 607.978 1800.69 597.085 1811.35C591.698 1816.62 584.725 1819.25 577.751 1819.25Z" fill="#4C3100"/>
<path d="M358.418 2200.78L379.978 1946.18L401.538 2200.78C402.831 2231.73 357.138 2231.78 358.418 2200.78Z" fill="#4C3100"/>
<path d="M759.805 901.739L862.245 916.779L1072.34 730.033L838.138 561.419L723.165 714.099L759.805 901.739ZM870.978 973.619C869.645 973.619 868.311 973.526 866.965 973.339L732.418 953.579C720.818 951.886 711.551 943.046 709.298 931.539L666.551 712.606C665.045 704.913 666.885 696.939 671.591 690.686L810.258 506.553C819.298 494.539 836.285 491.966 848.485 500.753L1132.63 705.339C1139.44 710.246 1143.66 717.966 1144.08 726.353C1144.51 734.726 1141.11 742.846 1134.84 748.419L889.338 966.646C884.245 971.166 877.698 973.619 870.978 973.619Z" fill="#4C3100"/>
<path d="M521.831 863.314L1760.86 1077.23L1640.15 919.567C1633.4 910.767 1632.58 898.807 1638.03 889.167C1643.48 879.514 1654.22 874.074 1665.18 875.3L2024.76 915.767L2071.78 710.1L1985.26 514.554L1925.31 631.274C1918.96 643.634 1904.44 649.367 1891.36 644.66L1550.39 521.914C1546.96 520.674 1543.83 518.78 1541.14 516.34L1288.79 286.527L1214.3 243.954L1065.55 392.7C1056.03 402.207 1041.04 403.5 1030.06 395.714L851.325 269.3L655.338 277.14L623.071 446.527C621.698 453.727 617.525 460.1 611.445 464.22L497.391 541.607L521.831 863.314ZM1825.71 1144.11C1824.15 1144.11 1822.58 1143.98 1821 1143.71L491.205 914.127C478.725 911.967 469.311 901.607 468.351 888.98L441.071 529.82C440.325 519.94 444.911 510.42 453.111 504.86L570.925 424.914L605.151 245.234C607.551 232.607 618.351 223.3 631.191 222.794L858.511 213.7C864.605 213.434 870.605 215.234 875.578 218.754L1042.95 337.14L1190.14 189.94C1198.95 181.127 1212.58 179.3 1223.39 185.487L1318.87 240.047C1320.62 241.047 1322.27 242.247 1323.76 243.607L1574.28 471.767L1887.23 584.434L1962.52 437.82C1967.38 428.34 1977.32 422.447 1987.9 422.82C1998.55 423.127 2008.07 429.514 2012.38 439.26L2126.03 696.127C2128.44 701.58 2129.03 707.66 2127.71 713.46L2073.15 952.154C2070.02 965.86 2057.07 975.007 2043.11 973.46L1723.47 937.487L1847.66 1099.67C1854.56 1108.71 1855.24 1121.06 1849.35 1130.78C1844.3 1139.15 1835.27 1144.11 1825.71 1144.11Z" fill="#4C3100"/>
<path d="M832.365 550.819C823.858 550.819 815.471 546.913 810.045 539.526L610.018 266.753C600.991 254.446 603.645 237.139 615.951 228.113C628.271 219.086 645.565 221.753 654.578 234.059L854.618 506.833C863.645 519.153 860.991 536.446 848.685 545.473C843.751 549.086 838.031 550.819 832.365 550.819Z" fill="#4C3100"/>
<path d="M1048.07 690.619C1032.9 690.619 1020.55 678.379 1020.44 663.179L1018.38 373.353C1018.27 358.086 1030.55 345.633 1045.82 345.513H1046.02C1061.19 345.513 1073.54 357.753 1073.66 372.953L1075.71 662.779C1075.82 678.046 1063.54 690.513 1048.27 690.619H1048.07Z" fill="#4C3100"/>
<path d="M1325.76 863.086L1500.64 707.313L1357.28 892.499C1337.11 916.339 1303.35 884.899 1325.76 863.086Z" fill="#4C3100"/>
<path d="M1921.83 614.313L1932.55 773.233L1879.6 623.006C1875.62 611.673 1881.56 599.246 1892.9 595.259C1906.19 590.339 1921.07 600.206 1921.83 614.313Z" fill="#4C3100"/>
<path d="M2193.95 1069.1C2188.78 1069.1 2183.57 1067.66 2178.97 1064.67L2031.2 969.206C2018.39 960.926 2014.71 943.819 2022.99 930.992C2031.27 918.179 2048.38 914.499 2061.2 922.779L2189.86 1005.91L2266.14 926.806C2271.82 920.913 2279.87 917.873 2287.99 918.419L2543.71 936.606C2558.94 937.686 2570.41 950.913 2569.33 966.139C2568.25 981.366 2554.94 992.806 2539.79 991.739L2296.95 974.473L2213.86 1060.65C2208.5 1066.22 2201.26 1069.1 2193.95 1069.1Z" fill="#4C3100"/>
<path d="M2100.77 679.673L2289.43 695.419C2303.82 696.726 2303.81 717.926 2289.43 719.192L2100.77 734.939C2085.5 736.219 2072.1 724.873 2070.82 709.619C2069.24 692.713 2083.9 678.126 2100.77 679.673Z" fill="#4C3100"/>
<path d="M2787.26 1927.97L2616.75 2398.55L2597.63 2389.05L2412.16 2296.27L2234.86 2562.19L1737.06 2596.34L1318.38 2869.07L1286.95 2889.55L1250.38 2869.07L946.005 2698.63L741.418 2262.13L746.178 2251.85L864.178 1996.19L859.418 1985.99L857.085 1981.01L768.685 1791.61H577.778L579.138 1776.79L579.671 1771.13L598.178 1566.55L596.738 1561.71L530.858 1337.63L530.031 1334.69L534.938 1330.91L535.471 1330.54L547.938 1321.02L645.925 1246.07L870.978 1211.93V945.994L871.431 945.541L1116.51 727.741L1341.5 898.247H1675.64L1677.08 900.514L1679.72 904.741L1753.83 1022.61V1022.67L1811.32 1114.02L1825.68 1136.9L1975.72 1198.33L2193.98 1061.89L2330.34 1368.77L2500.86 1252.87L2596.35 1334.69L2603.07 1618.98L2603.15 1621.1L2542.34 1844.03L2541.72 1846.15L2774.64 1923.74L2780.68 1925.78L2787.26 1927.97Z" fill="#E5B385"/>
<path d="M645.925 1246.07L870.978 1211.93V1304.17L645.925 1338.31L552.165 1410.01L530.858 1337.63L530.031 1334.69L534.938 1330.91L535.471 1330.54L547.938 1321.02L645.925 1246.07Z" fill="#EBAD6F"/>
<path d="M2330.34 1461.01L2193.98 1154.13L1975.72 1290.57L1825.68 1229.15L1811.32 1206.26L1753.83 1114.93V1114.85L1679.72 996.994L1677.08 992.767L1675.64 990.5H1341.5L1116.51 819.98L898.618 1013.63V958.354L1117.91 763.474L1324.8 920.274C1329.6 923.914 1335.47 925.887 1341.5 925.887H1660.38L1729.67 1036.09C1729.91 1036.53 1730.18 1036.97 1730.44 1037.41L1802.27 1151.59C1805.34 1156.49 1809.87 1160.29 1815.2 1162.49L1965.24 1223.9C1968.62 1225.29 1972.18 1225.97 1975.72 1225.97C1980.83 1225.97 1985.91 1224.54 1990.36 1221.77L2181.64 1102.19L2305.08 1379.98C2308.42 1387.47 2314.88 1393.09 2322.76 1395.34C2325.26 1396.05 2327.8 1396.41 2330.35 1396.41C2335.83 1396.41 2341.24 1394.77 2345.88 1391.62L2498.91 1287.61L2569.02 1347.66L2570.36 1404.67L2500.86 1345.11L2330.34 1461.01Z" fill="#EFD1B6"/>
<path d="M966.951 2678.21L1285.67 2837.54L1722.74 2572.7C1726.51 2570.42 1730.78 2569.07 1735.18 2568.77L2219.4 2535.55L2389.16 2280.94C2396.91 2269.34 2412.07 2265.33 2424.52 2271.54L2601.32 2359.99L2751.62 1945.19L2532.99 1872.37C2518.94 1867.69 2511.07 1852.77 2515.16 1838.53L2515.76 1836.42L2575.4 1617.79L2569.02 1347.66L2498.91 1287.61L2345.88 1391.62C2339.1 1396.23 2330.63 1397.59 2322.76 1395.34C2314.88 1393.09 2308.42 1387.47 2305.08 1379.98L2181.64 1102.19L1990.36 1221.77C1982.83 1226.47 1973.48 1227.29 1965.24 1223.9L1815.2 1162.49C1809.87 1160.29 1805.34 1156.49 1802.27 1151.59L1730.44 1037.41C1730.18 1036.97 1729.91 1036.53 1729.67 1036.09L1660.38 925.887H1341.5C1335.47 925.887 1329.6 923.914 1324.8 920.274L1117.91 763.474L898.618 958.354V1211.93C898.618 1225.58 888.631 1237.19 875.125 1239.25L657.085 1272.33L561.871 1345.14L624.671 1558.69C625.671 1562.03 626.018 1565.55 625.698 1569.05L608.071 1763.97H768.685C779.431 1763.97 789.191 1770.18 793.725 1779.91L889.218 1984.5C892.671 1991.87 892.685 2000.38 889.271 2007.77L771.898 2262.05L966.951 2678.21ZM1286.95 2896.71C1282.72 2896.71 1278.5 2895.74 1274.59 2893.79L933.645 2723.35C928.071 2720.58 923.618 2715.99 920.978 2710.37L716.391 2273.85C712.925 2266.46 712.911 2257.9 716.338 2250.5L721.098 2240.23L833.711 1996.26L832.071 1992.77L751.085 1819.25H577.778C570.005 1819.25 562.605 1815.97 557.365 1810.23C552.125 1804.49 549.551 1796.81 550.258 1789.07L570.178 1569.34L503.431 1342.19C500.365 1331.31 504.231 1319.67 513.178 1312.78L518.098 1309.01C518.378 1308.79 518.658 1308.58 518.938 1308.38L629.138 1224.11C632.831 1221.29 637.178 1219.45 641.778 1218.74L843.351 1188.17V945.993C843.351 938.66 846.258 931.633 851.445 926.46C851.818 926.073 852.671 925.247 853.071 924.887L1098.15 707.087C1108 698.314 1122.68 697.74 1133.2 705.714L1350.79 870.607H1675.64C1685.12 870.607 1693.94 875.46 1699 883.474L1703.15 890.087L1777.23 1007.89C1777.5 1008.31 1777.75 1008.75 1777.99 1009.18L1844.38 1114.7L1973.08 1167.38L2179.34 1038.46C2186.12 1034.21 2194.42 1033.13 2202.07 1035.46C2209.72 1037.81 2215.99 1043.35 2219.23 1050.66L2342.16 1327.31L2485.32 1230.01C2495.63 1223.01 2509.36 1223.77 2518.83 1231.89L2614.34 1313.7C2620.28 1318.81 2623.79 1326.19 2623.98 1334.03L2630.76 1620.07C2630.87 1622.87 2630.55 1625.67 2629.82 1628.37L2575.3 1828.19L2796 1901.75C2803.08 1904.11 2808.9 1909.23 2812.14 1915.94C2815.38 1922.65 2815.78 1930.38 2813.24 1937.38L2642.72 2407.97C2640.04 2415.38 2634.32 2421.29 2627.02 2424.22C2619.7 2427.14 2611.48 2426.81 2604.43 2423.3L2421.62 2331.9L2257.84 2577.53C2253.08 2584.66 2245.3 2589.18 2236.74 2589.77L1745.64 2623.46L1301.27 2892.71C1296.88 2895.37 1291.92 2896.71 1286.95 2896.71Z" fill="#4C3100"/>
<path d="M2193.96 1013.83C2196.68 1013.83 2199.4 1014.23 2202.06 1015.03C2209.71 1017.38 2215.96 1022.93 2219.22 1030.25L2342.16 1306.89L2475.34 1216.33L2513.28 967.567L2358.12 588.287L2213.55 559.38C2204.39 557.54 2196.78 551.207 2193.31 542.54L2156.14 449.62L2026.74 471.714L2126.03 696.127C2128.44 701.58 2129.03 707.66 2127.71 713.474L2073.15 952.154C2069.99 965.967 2056.88 975.194 2042.83 973.42L1720.6 933.74L1843.11 1093.74L1973.1 1146.91L2179.31 1018.03C2183.75 1015.26 2188.83 1013.83 2193.96 1013.83ZM2330.35 1375.98C2327.82 1375.98 2325.27 1375.63 2322.78 1374.93C2314.9 1372.67 2308.43 1367.05 2305.1 1359.57L2181.63 1081.77L1990.39 1201.29C1982.84 1206.01 1973.5 1206.79 1965.27 1203.43L1815.24 1142.06C1810.71 1140.21 1806.75 1137.17 1803.76 1133.27L1636.68 915.06C1629.92 906.22 1629.11 894.18 1634.64 884.527C1640.18 874.86 1650.95 869.46 1662 870.834L2024.82 915.514L2071.78 710.1L1961.83 461.62C1958.39 453.834 1958.72 444.874 1962.75 437.367C1966.79 429.86 1974.06 424.634 1982.46 423.194L2168.86 391.38C2181.72 389.167 2194.32 396.26 2199.16 408.354L2239.07 508.114L2383.51 536.994C2392.59 538.82 2400.16 545.06 2403.67 553.634L2567.34 953.714C2569.23 958.34 2569.83 963.394 2569.07 968.34L2528.16 1236.58C2527 1244.17 2522.74 1250.94 2516.38 1255.26L2345.9 1371.19C2341.26 1374.34 2335.84 1375.98 2330.35 1375.98Z" fill="#4C3100"/>
<path d="M1787.99 1885.7C1807.51 1981.5 1706.48 2056.42 1618.26 2053.27C1530.19 2055.26 1430.59 1981.17 1448.67 1885.69C1451.54 1872.34 1470.74 1872.07 1474.1 1885.1C1491.44 1951.06 1555.1 1984.07 1618.26 1984.07C1681.27 1982.81 1743.08 1950.87 1762.12 1885.7C1765.22 1872.15 1785 1872.27 1787.99 1885.7Z" fill="#4C3100"/>
<path d="M1895.2 2841.43H1385.9L1745.65 2623.46L2236.74 2589.77C2245.3 2589.18 2253.09 2584.66 2257.85 2577.53L2421.62 2331.9L2539.1 2390.63L2459.87 2435.91C2454.87 2438.77 2450.88 2443.13 2448.47 2448.37L2299.84 2771.83L1978.25 2833.1C2018.79 2763.03 2056.84 2691.49 2088.26 2616.77C2031.58 2686.66 1982.2 2761.9 1935.4 2838.61C1882 2769.61 1826.31 2702.23 1764.34 2640.63C1803.15 2710.62 1848.08 2776.87 1895.2 2841.43Z" fill="#825338"/>
<path d="M1915.58 2869.07H1340.28L1385.9 2841.43H1895.2C1901.95 2850.67 1908.75 2859.89 1915.58 2869.07ZM1959.71 2864.77C1965.94 2854.23 1972.12 2843.69 1978.24 2833.1L2299.84 2771.83L2448.47 2448.37C2450.88 2443.13 2454.87 2438.77 2459.87 2435.91L2539.1 2390.63L2568.83 2405.5L2473.58 2459.9L2319 2796.33L1959.71 2864.77Z" fill="#4C3100"/>
<path d="M1937.11 2869.07H1915.58C1908.75 2859.89 1901.95 2850.67 1895.2 2841.43C1848.08 2776.87 1803.15 2710.62 1764.34 2640.63C1826.31 2702.23 1882 2769.61 1935.4 2838.61C1982.2 2761.9 2031.58 2686.66 2088.26 2616.77C2056.84 2691.49 2018.79 2763.03 1978.24 2833.1C1972.12 2843.69 1965.94 2854.23 1959.71 2864.77L1937.11 2869.07Z" fill="#4C3100"/>
<path d="M115.258 2392.41L56.3232 2182.51L76.9779 2107.81L356.125 1684.78L391.325 1862.54L732.351 2073.47L817.871 2010.07L724.685 2212.02L399.364 2175.15L379.978 1946.18L360.058 2181.47L115.258 2392.41Z" fill="#B8775A"/>
<path d="M1169.86 2841.43H687.725L445.791 2586.27C462.125 2586.26 478.445 2586.15 494.778 2585.97C598.391 2584.5 701.978 2580.86 805.058 2569.03C683.671 2555.42 561.605 2551.9 439.578 2551.87C509.138 2495.1 577.285 2436.51 641.391 2373.54C557.378 2425.11 477.311 2482.69 398.751 2542.07L151.685 2433.98L388.885 2229.59L714.125 2266.45C714.525 2268.98 715.271 2271.47 716.391 2273.85L920.978 2710.37C923.618 2715.99 928.071 2720.58 933.645 2723.35L1169.86 2841.43Z" fill="#825338"/>
<path d="M1225.14 2869.07H675.844L407.604 2586.17C418.871 2586.23 430.124 2586.27 441.391 2586.27C442.858 2586.27 444.324 2586.27 445.791 2586.27L687.724 2841.43H1169.86L1225.14 2869.07ZM375.645 2562.14L128.471 2453.98L151.685 2433.98L398.751 2542.07C392.778 2546.59 386.831 2551.11 380.871 2555.63C378.418 2557.43 376.698 2559.67 375.645 2562.14ZM724.684 2212.02L399.364 2175.15L724.684 2212.01V2212.02Z" fill="#4C3100"/>
<path d="M441.391 2586.27C430.124 2586.27 418.871 2586.23 407.604 2586.17L391.324 2568.99L375.645 2562.14C376.698 2559.67 378.418 2557.43 380.871 2555.63C386.831 2551.11 392.778 2546.59 398.751 2542.07C477.311 2482.69 557.378 2425.11 641.391 2373.54C577.284 2436.51 509.138 2495.1 439.578 2551.87C561.605 2551.9 683.671 2555.42 805.058 2569.03C701.978 2580.86 598.391 2584.5 494.778 2585.97C478.445 2586.15 462.124 2586.26 445.791 2586.27C444.324 2586.27 442.858 2586.27 441.391 2586.27Z" fill="#4C3100"/>
<path d="M128.471 2453.98L100.391 2441.7L27.6367 2182.57L76.9781 2107.81L56.3234 2182.51L115.258 2392.41L360.058 2181.47L358.418 2200.78C357.778 2216.27 368.871 2224.01 379.965 2224.01C391.071 2224.01 402.191 2216.26 401.538 2200.78L399.365 2175.15L724.685 2212.02L817.871 2010.07L832.258 1999.41L721.098 2240.23L716.338 2250.5C714.005 2255.53 713.271 2261.09 714.125 2266.45L388.885 2229.59L151.685 2433.98L128.471 2453.98Z" fill="#4C3100"/>
<path d="M379.965 2224.01C368.871 2224.01 357.778 2216.27 358.418 2200.78L360.058 2181.47L379.978 1946.18L399.365 2175.15L401.538 2200.78C402.191 2216.26 391.071 2224.01 379.965 2224.01Z" fill="#4C3100"/>
<path d="M1285.67 2837.54L966.951 2678.21L771.898 2262.05L873.271 2042.45L905.058 2275.79L1242.67 2684.74L1726.03 2373.55H2195.11L2396.3 2073.47L2571.11 2184.75L2746.16 1960.27L2601.32 2359.99L2424.52 2271.54C2420.58 2269.58 2416.36 2268.63 2412.19 2268.63C2403.2 2268.63 2394.46 2273.02 2389.16 2280.94L2219.4 2535.55L1735.18 2568.77C1730.78 2569.07 1726.51 2570.42 1722.74 2572.7L1285.67 2837.54Z" fill="#C6996A"/>
<path d="M1286.95 2889.55L1250.38 2869.07H1225.14L1169.86 2841.43L933.645 2723.35C928.071 2720.58 923.618 2715.99 920.978 2710.37L716.391 2273.85C715.271 2271.47 714.525 2268.98 714.125 2266.45C713.271 2261.09 714.005 2255.53 716.338 2250.5L721.098 2240.23L832.258 1999.41L857.085 1981.01L864.178 1975.71L873.271 2042.45L771.898 2262.05L966.951 2678.21L1285.67 2837.54L1722.74 2572.7C1726.51 2570.42 1730.78 2569.07 1735.18 2568.77L2219.4 2535.55L2389.16 2280.94C2394.46 2273.02 2403.2 2268.63 2412.19 2268.63C2416.36 2268.63 2420.58 2269.58 2424.52 2271.54L2601.32 2359.99L2746.16 1960.27L2774.64 1923.74L2776 1922.01L2785.67 1909.61L2787.26 1907.57L2780.68 1925.78L2787.26 1927.97L2616.75 2398.55L2597.63 2389.05L2568.83 2405.5L2539.1 2390.63L2421.62 2331.9L2257.84 2577.53C2253.08 2584.66 2245.3 2589.18 2236.74 2589.77L1745.64 2623.46L1385.9 2841.43L1340.28 2869.07H1318.38L1286.95 2889.55Z" fill="#4C3100"/>
<path d="M1373.15 1659.53C1350.4 1768.66 1270.98 1844.06 1195.87 1827.87C1120.78 1811.69 1078.35 1710.06 1101.19 1600.94C1112.59 1546.77 1137.76 1500.9 1169.48 1470.47C1184.91 1455.66 1201.8 1444.5 1219.4 1437.83C1251.82 1448.91 1282.36 1460.98 1306.11 1470.82C1323.74 1478.13 1337.69 1482.63 1348.77 1484.83C1358.21 1499.46 1365.62 1516.38 1370.75 1535.11C1380.96 1571.78 1382.42 1615.03 1373.15 1659.53Z" fill="#4C3100"/>
<path d="M1295.91 1533.65C1269.78 1537.29 1250.02 1571.17 1251.8 1609.31C1253.58 1647.46 1276.2 1675.43 1302.35 1671.79C1328.5 1668.15 1348.24 1634.29 1346.46 1596.14C1344.68 1557.98 1322.06 1530.01 1295.91 1533.65Z" fill="white"/>
<path d="M1160.2 1706.35C1147.8 1713.57 1144.11 1734.11 1151.95 1752.26C1159.8 1770.39 1176.22 1779.26 1188.62 1772.05C1201.02 1764.83 1204.71 1744.29 1196.87 1726.15C1189.02 1708.01 1172.6 1699.15 1160.2 1706.35Z" fill="#B199C5"/>
<path d="M1404.86 1527.63C1395.62 1532.45 1384.52 1535.23 1370.75 1535.11C1358.3 1535.07 1343.54 1532.55 1325.93 1527.13C1317.09 1524.35 1307.39 1520.9 1296.98 1516.5C1279.11 1509.06 1261.94 1502.29 1245.45 1496.07C1218.03 1485.82 1192.56 1477.17 1169.48 1470.47C1120.4 1456.09 1082.09 1449.99 1058.86 1453.41C1058.86 1453.41 1102.83 1404.11 1170.37 1422.22C1186.78 1426.9 1203.34 1432.23 1219.41 1437.83C1251.82 1448.91 1282.37 1460.98 1306.11 1470.82C1323.74 1478.13 1337.69 1482.63 1348.77 1484.83C1383.41 1491.59 1392.07 1476.26 1404.43 1454.31L1406.79 1450.21C1406.79 1450.21 1439.59 1508.97 1404.86 1527.63Z" fill="#4C3100"/>
<path d="M1859.62 1661.62C1886.62 1766.91 1967.32 1836.83 2039.75 1817.74C2112.18 1798.65 2148.99 1697.78 2121.91 1592.5C2108.41 1540.25 2081.84 1496.7 2049.6 1468.46C2033.92 1454.71 2016.98 1444.59 1999.54 1438.89C1968.46 1451.1 1939.23 1464.22 1916.54 1474.86C1899.7 1482.75 1886.31 1487.77 1875.62 1490.39C1867.08 1505.06 1860.61 1521.87 1856.45 1540.35C1848.11 1576.51 1848.62 1618.7 1859.62 1661.62Z" fill="#4C3100"/>
<path d="M1929.27 1535.61C1954.88 1537.98 1975.63 1570.1 1975.59 1607.34C1975.55 1644.58 1954.74 1672.82 1929.12 1670.43C1903.5 1668.05 1882.76 1635.94 1882.8 1598.7C1882.84 1561.46 1903.64 1533.22 1929.27 1535.61Z" fill="white"/>
<path d="M2069.1 1697.81C2081.5 1704.27 2086.02 1724.13 2079.18 1742.14C2072.34 1760.15 2056.74 1769.51 2044.34 1763.05C2031.95 1756.57 2027.43 1736.71 2034.27 1718.7C2041.11 1700.69 2056.71 1691.33 2069.1 1697.81Z" fill="#B199C5"/>
<path d="M1822.88 1534.57C1832.1 1538.85 1843.03 1541.06 1856.44 1540.35C1868.56 1539.75 1882.83 1536.65 1899.74 1530.57C1908.23 1527.49 1917.51 1523.69 1927.46 1518.94C1944.54 1510.9 1960.98 1503.54 1976.75 1496.75C2003 1485.55 2027.43 1476.01 2049.6 1468.46C2096.78 1452.27 2133.82 1444.63 2156.59 1446.93C2156.59 1446.93 2111.59 1400.87 2046.6 1421.5C2030.83 1426.78 2014.94 1432.71 1999.54 1438.89C1968.46 1451.1 1939.23 1464.22 1916.54 1474.86C1899.7 1482.75 1886.31 1487.77 1875.62 1490.39C1842.19 1498.51 1833.07 1483.97 1820.04 1463.14L1817.58 1459.25C1817.58 1459.25 1788.23 1517.93 1822.88 1534.57Z" fill="#4C3100"/>
</svg>
